<?xml version="1.0" encoding="UTF-8"?>
<!DOCTYPE svg PUBLIC "-//W3C//DTD SVG 1.0//EN" "http://www.w3.org/TR/2001/REC-SVG-20010904/DTD/svg10.dtd">
<!-- Creator: CorelDRAW 2018 (64-Bit) -->
<svg xmlns="http://www.w3.org/2000/svg" xml:space="preserve" width="101.6mm" height="52.9165mm" version="1.0" style="shape-rendering:geometricPrecision; text-rendering:geometricPrecision; image-rendering:optimizeQuality; fill-rule:evenodd; clip-rule:evenodd"
viewBox="0 0 10160 5291.65"
 xmlns:xlink="http://www.w3.org/1999/xlink">
 <defs>
  <style type="text/css">
   <![CDATA[
    .fil2 {fill:#0D6EFD;fill-rule:nonzero}
    .fil0 {fill:#0DCAF0;fill-rule:nonzero}
    .fil1 {fill:#FFC107;fill-rule:nonzero}
   ]]>
  </style>
 </defs>
 <g id="Слой_x0020_1">
  <metadata id="CorelCorpID_0Corel-Layer"/>
  <g id="_1691032436352">
   <path class="fil0" d="M10160 1379.77c-64.99,-12.26 -134.43,-18.39 -208.34,-18.39 -35.69,0 -78.39,3.18 -128.11,9.56 -49.71,6.37 -87.31,13.38 -112.81,21.03l0 1537.28 -569.78 0 0 -1515.92c0,-246.21 170.06,-452.99 411.65,-500.51 125.74,-24.73 263.87,-37.1 414.35,-37.1 30.59,0 67.56,1.91 110.9,5.74 27.38,2.41 54.76,5.34 82.14,8.77l0 489.54zm-2358.93 -515.51c-169.58,0.24 -310.79,22.53 -423.62,66.91 -113.45,44.61 -203.32,107.71 -269.6,189.29 -66.29,81.58 -113.45,178.46 -141.49,290.63 -28.05,112.17 -42.07,237.09 -42.07,374.76l0 68.83 0 68.83c0,137.67 14.02,262.59 42.07,374.76 28.04,112.17 75.2,209.05 141.49,290.63 66.28,81.58 156.15,144.68 269.6,189.29 112.83,44.38 254.04,66.67 423.62,66.91 169.58,-0.24 310.79,-22.53 423.62,-66.91 113.45,-44.61 203.32,-107.71 269.6,-189.29 66.29,-81.58 113.45,-178.46 141.49,-290.63 28.05,-112.17 42.07,-237.09 42.07,-374.76l0 -68.83 0 -68.83c0,-137.67 -14.02,-262.59 -42.07,-374.76 -28.04,-112.17 -75.2,-209.05 -141.49,-290.63 -66.28,-81.58 -156.15,-144.68 -269.6,-189.29 -112.83,-44.38 -254.04,-66.67 -423.62,-66.91zm-306.99 990.42c0,-183.55 24.22,-313.57 72.66,-390.05 43.77,-69.11 121.88,-107 234.33,-113.66 112.45,6.66 190.56,44.55 234.33,113.66 48.44,76.48 72.66,206.5 72.66,390.05 0,183.55 -24.22,313.57 -72.66,390.05 -43.77,69.11 -121.88,107 -234.33,113.66 -112.45,-6.66 -190.56,-44.55 -234.33,-113.66 -48.44,-76.48 -72.66,-206.5 -72.66,-390.05zm-1082.52 1074.57l-569.78 0 0 -2011.47 569.78 0 0 2011.47zm-2778.7 -1942.63c96.87,-28.05 221.79,-54.18 374.76,-78.4 152.96,-24.22 313.57,-36.32 481.83,-36.32 170.81,0 312.94,22.3 426.38,66.92 113.45,44.61 203.32,107.71 269.6,189.29 66.29,81.58 113.45,178.46 141.49,290.63 28.05,112.17 42.07,237.09 42.07,374.76l0 1135.75 -569.79 0 0 -1066.92c0,-183.55 -24.22,-313.57 -72.66,-390.05 -48.44,-76.49 -138.94,-114.73 -271.51,-114.73 -40.79,0 -84.13,1.92 -130.02,5.74 -45.88,3.82 -86.68,8.28 -122.37,13.38l0 1552.58 -569.78 0 0 -1942.63zm-491.91 1873.8c-96.88,28.04 -221.8,54.17 -374.76,78.39 -152.97,24.22 -313.58,36.33 -481.84,36.33 -170.81,0 -312.93,-22.95 -426.38,-68.83 -113.45,-45.89 -203.31,-110.27 -269.6,-193.12 -66.28,-82.86 -113.45,-181.64 -141.49,-296.37 -28.04,-114.72 -42.06,-240.91 -42.06,-378.58l0 -1120.46 569.78 0 0 1051.63c0,183.55 24.22,316.12 72.66,397.7 48.44,81.58 138.94,122.37 271.51,122.37 40.79,0 84.13,-1.91 130.02,-5.74 45.89,-3.82 86.68,-8.28 122.37,-13.38l0 -1552.58 569.79 0 0 1942.64zm-2966.09 776.28c-35.7,0 -88.6,-3.82 -158.7,-11.47 -5.41,-0.59 -10.8,-1.22 -16.16,-1.89l0 -476.26 0.86 0.14c31.87,5.1 72.02,7.65 120.46,7.65 89.23,0 151.69,-26.77 187.38,-80.3 35.69,-53.54 53.54,-131.3 53.54,-233.27l0 -1923.52 569.78 0 0 1938.81c0,265.14 -65.01,461.44 -195.02,588.91 -130.02,127.47 -317.4,191.2 -562.14,191.2z"/>
   <path class="fil1" d="M6465.1 336.52c0,104.53 -33.78,186.75 -101.34,246.66 -67.56,59.91 -147.22,89.86 -239,89.86 -91.78,0 -171.45,-29.95 -239.01,-89.86 -67.56,-59.91 -101.34,-142.13 -101.34,-246.66 0,-104.52 33.78,-186.74 101.34,-246.65 67.56,-59.91 147.23,-89.87 239.01,-89.87 91.78,0 171.44,29.96 239,89.87 67.56,59.91 101.34,142.13 101.34,246.65z"/>
   <path class="fil1" d="M985.56 336.52c0,104.53 -33.78,186.75 -101.34,246.66 -67.56,59.91 -147.22,89.86 -239,89.86 -91.78,0 -171.45,-29.95 -239.01,-89.86 -67.56,-59.91 -101.34,-142.13 -101.34,-246.66 0,-104.52 33.78,-186.74 101.34,-246.65 67.56,-59.91 147.23,-89.87 239.01,-89.87 91.78,0 171.44,29.96 239,89.87 67.56,59.91 101.34,142.13 101.34,246.65z"/>
   <path class="fil2" d="M968.4 5238.11l-569.78 0 0 -1363.21c192.12,-30.56 372.34,-105.47 516.96,-247.26 18.77,-18.4 36.34,-37.49 52.82,-57.18l0 1667.65zm400.87 -1942.63c96.87,-28.05 221.79,-54.18 374.76,-78.4 152.96,-24.22 313.57,-36.32 481.83,-36.32 170.81,0 312.94,22.3 426.38,66.92 113.45,44.61 203.32,107.71 269.6,189.29 66.29,81.58 113.45,178.46 141.49,290.63 28.05,112.17 42.07,237.09 42.07,374.76l0 1135.75 -569.79 0 0 -1066.92c0,-183.55 -24.22,-313.57 -72.66,-390.05 -48.44,-76.49 -138.94,-114.73 -271.51,-114.73 -40.79,0 -84.13,1.92 -130.02,5.74 -45.88,3.82 -86.68,8.28 -122.37,13.38l0 1552.58 -569.78 0 0 -1942.63zm2606.72 1942.63c-130.66,-254.94 -263.23,-553.22 -397.71,-894.83 -134.48,-341.62 -261.31,-713.83 -381.77,-1116.64l604.21 0c25.49,99.43 55.44,207.14 90.5,323.14 34.42,116 70.11,233.27 107.07,351.81 37.61,118.55 74.57,233.91 111.54,346.08 36.96,112.18 73.93,214.15 109.62,305.93 33.14,-91.78 68.84,-193.75 107.71,-305.93 38.24,-112.17 75.85,-227.53 112.81,-346.08 36.97,-118.54 73.3,-235.81 107.72,-351.81 34.41,-116 64.37,-223.71 89.86,-323.14l589.55 0c-120.46,402.81 -247.29,775.02 -381.77,1116.64 -133.85,341.61 -266.41,639.89 -397.07,894.83l-472.27 0zm1269.56 -990.44c0,-178.45 27.41,-334.6 82.22,-468.45 54.81,-133.84 126.83,-245.37 216.06,-334.6 89.23,-89.23 191.84,-156.79 307.84,-202.68 116,-45.89 235.18,-68.83 357.55,-68.83 285.53,0 511.15,87.31 676.86,261.95 165.71,174.63 248.57,431.48 248.57,770.55 0,33.14 -1.28,69.47 -3.83,108.98 -2.54,39.52 -5.09,74.57 -7.64,105.17l-1292.54 0c12.74,117.27 67.56,210.32 164.43,279.15 96.88,68.84 226.9,103.25 390.06,103.25 104.52,0 207.14,-9.56 307.84,-28.68 100.7,-19.12 182.92,-42.7 246.65,-70.74l76.48 462.71c-30.59,15.3 -71.38,30.6 -122.37,45.89 -50.99,15.3 -107.71,28.68 -170.17,40.15 -62.46,11.48 -129.38,21.04 -200.76,28.68 -71.39,7.65 -142.77,11.48 -214.15,11.48 -181.01,0 -338.43,-26.77 -472.28,-80.31 -133.84,-53.54 -244.74,-126.83 -332.69,-219.88 -87.95,-93.06 -152.96,-203.32 -195.03,-330.79 -42.06,-127.47 -63.1,-265.13 -63.1,-413zm1338.43 -217.97c-2.55,-48.44 -10.83,-95.6 -24.85,-141.49 -14.03,-45.89 -35.7,-86.68 -65.01,-122.37 -29.32,-35.69 -66.29,-65.01 -110.9,-87.95 -44.62,-22.95 -100.07,-34.42 -166.35,-34.42 -63.73,0 -118.55,10.83 -164.44,32.5 -45.88,21.67 -84.13,50.35 -114.72,86.05 -30.59,35.69 -54.17,77.11 -70.74,124.28 -16.57,47.16 -28.68,94.96 -36.33,143.4l753.34 0zm1433.36 799.23c104.53,0 178.46,-10.19 221.8,-30.59 43.34,-20.39 65.01,-59.91 65.01,-118.55 0,-45.88 -28.05,-86.04 -84.13,-120.45 -56.09,-34.42 -141.49,-73.3 -256.22,-116.64 -89.22,-33.14 -170.17,-67.56 -242.82,-103.25 -72.66,-35.69 -134.48,-78.39 -185.47,-128.11 -50.99,-49.71 -90.51,-108.98 -118.55,-177.82 -28.04,-68.83 -42.06,-151.68 -42.06,-248.56 0,-188.65 70.1,-337.79 210.32,-447.42 140.22,-109.62 332.7,-164.43 577.44,-164.43 122.37,0 239.64,10.83 351.81,32.5 112.18,21.67 201.4,45.25 267.69,70.75l-99.43 443.59c-66.28,-22.94 -138.3,-43.34 -216.06,-61.18 -77.76,-17.85 -165.07,-26.77 -261.95,-26.77 -178.46,0 -267.68,49.71 -267.68,149.14 0,22.94 3.82,43.34 11.47,61.18 7.65,17.85 22.94,35.05 45.89,51.63 22.94,16.57 54.17,34.41 93.69,53.53 39.51,19.76 89.86,40.79 151.05,63.74 124.92,46.52 228.17,91.78 309.75,137.03 81.58,44.61 145.95,93.69 193.11,145.31 47.17,52.26 80.31,110.26 99.43,174 19.12,63.73 28.68,137.03 28.68,221.16 0,198.21 -74.57,348.63 -223.71,450.6 -149.14,101.34 -360.1,152.33 -632.88,152.33 -178.46,0 -326.96,-15.3 -445.51,-45.89 -118.54,-30.59 -200.76,-56.09 -246.65,-76.48l95.6 -462.72c96.88,38.24 196.3,68.2 298.28,89.87 101.97,21.67 202.68,32.5 302.1,32.5zm1693.4 -1711.12l0 254.35 449.26 0 0 474.19 -449.26 0 0 561.93c0,119.82 21.04,215.44 63.1,286.81 42.06,71.38 126.83,107.07 254.3,107.07 43.01,0 86.96,-2.83 131.86,-8.5l0 476.12c-65.66,9.48 -140.2,14.22 -223.64,14.22 -155.51,0 -284.25,-21.03 -386.23,-63.1 -101.97,-42.06 -183.55,-100.7 -244.74,-175.91 -61.18,-75.2 -103.89,-166.34 -128.11,-273.42 -24.22,-107.07 -36.32,-225.62 -36.32,-355.64l0 -1298.12 569.78 0z"/>
  </g>
 </g>
</svg>
