<svg width="382" height="264" viewBox="0 0 382 264" fill="none" xmlns="http://www.w3.org/2000/svg">
<path d="M311.52 83.8081C314.32 78.9341 313.57 72.1761 305.332 75.9041L296 51.2681L279.082 47.3941L268.724 51.2681C268.724 51.2681 263.46 58.8181 263.46 61.8901C263.46 64.9621 264.188 71.1501 264.188 71.1501C263.021 73.3625 262.312 75.7875 262.104 78.2801C262.278 81.0121 266.472 95.7341 269.32 97.4801C272.168 99.2261 278.638 98.2221 278.638 98.2221L279.838 104.578L268.27 106.364C268.27 106.364 267.304 117.03 274.798 117.458C282.292 117.886 311.528 109.338 311.528 109.338L302.664 105.338L301.49 89.2481C301.49 89.2481 308.728 88.6821 311.52 83.8081ZM265.35 71.5901C265.242 70.8235 265.393 70.0427 265.78 69.3721C265.78 69.3721 266.316 68.7721 268.104 69.2741C269.432 69.8289 270.575 70.7492 271.4 71.9281C269.934 72.6879 268.364 73.2271 266.74 73.5281C266.142 73.4921 265.512 72.9321 265.35 71.5901ZM272.11 88.4681C270.51 88.0681 268.724 84.7041 268.724 84.7041L274.378 84.3721L282.178 84.7601C277.754 88.9701 273.71 88.8681 272.11 88.4681ZM282 74.2481C281.456 74.1421 281.114 73.6961 280.636 72.5061C280.158 71.3161 281.47 69.6601 281.47 69.6601C282.078 69.6964 282.688 69.6964 283.296 69.6601C284.312 69.6001 288.432 73.1241 288.432 73.1241C286.35 73.7932 284.186 74.1715 282 74.2481Z" fill="#FFE8BB"/>
<path d="M79.134 64.5541C79.134 64.5541 70 68.0681 68.188 70.7421C66.376 73.4161 62.378 74.1641 65.312 80.4461C65.312 80.4461 61.696 84.5241 64.138 88.7661C64.138 88.7661 84.192 75.5661 88.776 74.9061C93.36 74.2461 116.062 87.1761 125.856 93.9201L135.796 98.0221C135.796 98.0221 142.746 90.934 142.878 82.948C142.964 78.1851 142.427 73.4313 141.278 68.8081C141.278 68.8081 139.538 69.1521 138.496 69.4861C137.739 69.6591 136.946 69.5826 136.236 69.2681L130.358 83.2681C130.358 83.2681 121.758 73.4341 114.062 69.0181C106.366 64.6021 98.366 52.9121 79.134 64.5541Z" fill="#55DEFF"/>
<path d="M164.918 105.978H164.356C163.367 105.978 162.389 106.183 161.483 106.579C160.577 106.976 159.763 107.555 159.092 108.282C158.42 109.008 157.907 109.866 157.584 110.8C157.26 111.735 157.134 112.726 157.212 113.712L158.08 124.594C158.692 123.096 159.619 121.747 160.799 120.64C161.979 119.532 163.384 118.692 164.918 118.176V105.978Z" fill="#55DEFF"/>
<path d="M61.266 115.65C61.266 115.65 72.126 98.5021 89.964 95.3361C107.802 92.1701 110.654 109.89 110.654 109.89L113.822 129.668L122.126 130.918L121.656 138.558L127.1 135.758L131.068 142.602C131.068 142.602 133.376 137.484 135.098 137.022C138.048 135.989 140.766 134.386 143.098 132.304C145.828 129.866 154.752 124.156 158.072 124.592C158.858 122.853 160.027 121.314 161.491 120.089C162.954 118.864 164.675 117.985 166.526 117.518C171.134 116.205 175.452 114.033 179.254 111.118L187.454 131.85L184.49 134.268C184.49 134.268 186.052 139.994 182.69 140.14C179.328 140.286 182.936 149.926 174.838 151.048C174.838 151.048 173.366 150.824 172.602 152.816C171.838 154.808 162.764 166.942 159.852 168.524C156.94 170.106 137.706 187.094 124.58 188.972C111.454 190.85 81.6 154.686 81.6 154.686C81.6 154.686 63.086 144.686 60.628 134.066C59.1116 127.989 59.3327 121.608 61.266 115.65Z" fill="#55DEFF"/>
<path d="M63.272 238.852L66.164 246.564C66.164 246.564 116.752 250.8 127.722 251.436C138.692 252.072 167.694 242.588 167.694 242.588C168.597 239.633 169.041 236.558 169.01 233.468C169.01 233.468 128.428 237.384 113.682 237.716L63.272 238.852Z" fill="#55DEFF"/>
<path d="M162.84 166.212C162.84 166.212 165.886 201.658 166.416 204.704C166.946 207.75 171.178 223.304 171.174 225.432C171.17 227.56 171.428 231.042 169.01 233.468L167.694 242.588L172.666 259.652C172.666 259.652 181.05 260.166 184.142 259.158C187.234 258.15 185.854 255.916 185.854 255.916L184.542 244.67C185.823 241.038 186.734 237.285 187.262 233.47C187.222 229.626 185.688 225.947 182.984 223.214C184.542 218.024 184.81 212.532 183.766 207.214C182.198 197.248 177.966 191.844 176.648 181.262C175.337 172.742 173.494 164.312 171.128 156.022L162.84 166.212Z" fill="#55DEFF"/>
<path d="M268.724 51.2681C268.724 51.2681 272.584 49.7001 274.26 49.0321C276.098 50.3004 278.095 51.3212 280.2 52.0681C281.624 52.1521 289.512 50.9721 289.512 50.9721C291.232 52.5997 292.394 54.729 292.832 57.0561C293.748 61.2041 298.194 61.7021 298.978 61.9961C299.762 62.2901 299.338 66.7201 299.338 66.7201L298.666 71.9201C298.957 73.613 299.544 75.2418 300.398 76.7321L301.474 78.0521C301.474 78.0521 299.156 81.5381 298.212 81.4981C297.268 81.4581 293.346 82.4041 292.904 83.5241C292.462 84.6441 293.234 85.0861 295.53 85.0381C297.821 84.7236 299.927 83.6076 301.474 81.8881C302.87 79.9618 304.157 77.9586 305.328 75.8881C305.328 75.8881 310.182 74.9741 310.34 74.8881C310.498 74.8021 312.212 76.9141 312.212 76.9141C313.266 75.2908 314.011 73.4874 314.412 71.5941C314.286 70.1041 314.234 65.8581 314.234 65.8581L315.148 60.6021C316.837 60.992 318.596 60.968 320.274 60.5321C320.94 60.2222 321.534 59.7756 322.016 59.2212C322.498 58.6668 322.858 58.017 323.073 57.3143C323.287 56.6115 323.351 55.8715 323.261 55.1423C323.171 54.4132 322.928 53.7112 322.548 53.0821C323.142 52.6668 323.616 52.1021 323.922 51.4452C324.228 50.7882 324.356 50.0621 324.292 49.3401C324.459 48.0457 324.109 46.7378 323.317 45.7002C322.525 44.6626 321.356 43.9791 320.064 43.7981C317.496 43.6221 318.886 43.6821 318.886 43.6821C318.923 42.5461 318.545 41.4355 317.824 40.5569C317.103 39.6784 316.087 39.0917 314.966 38.9061C310.906 38.2241 305.744 38.9781 305.546 45.6081C305.546 45.6081 305.626 43.6601 301.774 45.0081C300.411 43.6015 298.678 42.6104 296.774 42.1501C294.548 42.0521 289.132 40.0681 286.52 40.1941C282.736 40.7321 279.028 41.7142 275.474 43.1201C273.426 44.0441 268.724 51.2681 268.724 51.2681Z" fill="#55DEFF"/>
<path d="M301.82 90.7121C303.417 91.5764 305.066 92.3431 306.756 93.0081C307.523 93.2229 308.307 93.3668 309.1 93.438L309.3 91.298C308.124 91.1411 306.972 90.836 305.872 90.39C304.482 89.746 303.592 89.248 303.592 89.248H301.49L301.82 90.7121Z" fill="#55DEFF"/>
<path d="M154.496 33.028C154.496 33.028 152.424 21.494 150.096 18.106C150.096 18.106 128.176 11.106 124.018 14.52C119.86 17.934 116.5 22.6 116.54 27.65C116.58 32.7 115.762 40.016 115.762 40.016C115.762 40.016 110.346 28.124 107.198 32.104C104.775 35.3524 103.585 39.3557 103.84 43.4C104.364 44.5959 104.954 45.7611 105.61 46.89C105.61 46.89 110 50.766 112.478 50.72L108.064 64.554C108.064 64.554 122.8 76.068 124.42 76.768C126.04 77.468 130.358 83.268 130.358 83.268L136.236 69.268C137.628 69.4154 139.036 69.2628 140.364 68.8205C141.692 68.3783 142.91 67.6566 143.936 66.704C146.922 63.538 148.916 56.576 150.86 53.998C152.913 50.2648 153.725 45.9754 153.18 41.75C152.46 39.036 154.496 33.028 154.496 33.028ZM128.846 37.468C131.046 36.212 137.96 37.468 137.96 37.468C137.839 38.767 137.549 40.0446 137.096 41.268C136.915 41.3331 136.727 41.3741 136.536 41.39L134.852 40.754C133.892 40.336 128.846 37.468 128.846 37.468ZM137.272 58.748C135.536 58.364 131.654 52.722 131.654 52.722L144.548 55.102C144.548 55.102 139 59.134 137.272 58.748ZM150.972 43.4C150.508 44.2 149.404 43.824 149.404 43.824L147.658 43.14L145.628 42.24L144.72 39.312C144.72 39.312 146.504 39.358 147.734 39.382C148.931 39.5209 150.108 39.7946 151.244 40.198C151.288 41.2725 151.197 42.3484 150.972 43.4Z" fill="#FFE8BB"/>
<path d="M180.642 113.806L187.208 130.726L192.55 133.28L197.884 134.16H200.788L203.588 135.884L207.998 136.86L211.114 134.968V132.062L213.69 130.566L214.476 127.884L210.786 116.7L208.424 113.082L202.776 112.466L180.642 113.806Z" fill="#FFE8BB"/>
<path d="M244.346 123.632L235.602 133.578L230.656 134.938L225.976 134.872L223.5 134.426L220.848 135.468L216.94 135.624L214.574 133.534L215.018 131.058L213.05 129.388L212.792 126.982L217.648 118.012L220.216 115.292L225.126 115.63L240.348 121.098L244.346 123.632Z" fill="#FFE8BB"/>
<path d="M236.124 132.984C236.124 132.984 268.182 174.29 279.662 178.28C291.142 182.27 305.498 171.526 305.498 171.526L291.612 147.812L285.378 149.548L244.346 123.632L236.124 132.984Z" fill="#FFE8BB"/>
<path d="M237.282 164.716C237.282 164.716 234.428 196.444 233.426 198.548C232.424 200.652 227.794 209.638 227.012 213.63C226.23 217.622 223.312 231.808 227.488 261.108C227.488 261.108 236.342 261.726 238.088 261.542C238.088 261.542 234.974 242.16 237.66 231.416C240.346 220.672 243.516 206.84 250.336 200.08L251.41 190.642L249.01 166.212L237.282 164.716Z" fill="#FFE8BB"/>
<path d="M285.878 151.048L291.612 147.812L288.888 143.162C288.811 143.03 288.783 142.874 288.812 142.723C288.84 142.573 288.922 142.437 289.042 142.342L298.392 134.924L299.802 127.524C299.814 127.438 299.843 127.356 299.888 127.282C299.932 127.208 299.992 127.144 300.062 127.094C300.132 127.043 300.212 127.008 300.296 126.989C300.381 126.97 300.468 126.969 300.553 126.985C300.638 127.001 300.719 127.035 300.79 127.083C300.862 127.131 300.923 127.194 300.97 127.266C301.017 127.339 301.049 127.42 301.063 127.506C301.077 127.591 301.074 127.678 301.054 127.762L299.922 133.714L305.8 129.048C305.866 128.996 305.941 128.956 306.022 128.933C306.103 128.91 306.187 128.902 306.271 128.912C306.354 128.921 306.435 128.947 306.509 128.987C306.583 129.028 306.647 129.082 306.7 129.148C306.753 129.214 306.792 129.289 306.815 129.37C306.838 129.451 306.846 129.535 306.836 129.619C306.827 129.702 306.801 129.783 306.761 129.857C306.72 129.931 306.666 129.996 306.6 130.048L290.276 142.998L307.366 172.178L330.208 154.826C333.538 149.838 338.706 138.668 338.682 129.55C338.658 120.77 318.796 109.372 313.63 106.55C313.256 106.345 312.842 106.223 312.416 106.193C311.99 106.164 311.563 106.227 311.164 106.378C305.74 108.428 284.258 116.274 278.18 114.378C273.22 112.822 269.298 107.914 267.448 105.208C267.087 104.683 266.566 104.288 265.962 104.082C265.359 103.876 264.705 103.871 264.098 104.066C259.15 105.64 247.438 109.406 246.298 110.152C244.858 111.1 240.77 119.698 240.77 119.698L240.348 121.098L239.83 121.752C239.83 121.752 259.23 134.942 265.408 138.502C271.586 142.062 285.878 151.048 285.878 151.048Z" fill="#313553"/>
<path d="M307.556 173.626C307.445 173.711 307.31 173.757 307.17 173.756C307.128 173.756 307.087 173.752 307.046 173.744C306.958 173.726 306.874 173.69 306.801 173.637C306.727 173.585 306.666 173.518 306.62 173.44L305.498 171.526C305.491 171.509 305.485 171.49 305.48 171.472C301.576 173.294 287.714 179.384 280.346 177.63C272.316 175.718 240.946 138.216 236.62 133.1L230.804 152.962C230.723 153.239 230.741 153.536 230.857 153.8C230.973 154.064 231.178 154.28 231.436 154.408L234.826 156.098L237.648 145.964C237.699 145.808 237.808 145.678 237.953 145.6C238.098 145.522 238.267 145.504 238.426 145.548C238.584 145.592 238.719 145.695 238.803 145.837C238.887 145.978 238.913 146.146 238.876 146.306L235.746 157.546C235.746 158.18 235.764 159.22 235.838 160.946C236.05 165.764 244.346 171.856 244.346 171.856C244.346 171.856 246.124 172.256 246.116 180.622C246.108 188.988 251.402 190.648 251.402 190.648C251.402 190.648 268.19 191.546 277.402 191.868C286.614 192.19 318.228 190.446 318.228 190.446C321.031 188.191 323.345 185.388 325.028 182.208C327.388 177.694 328.784 161.498 329.116 157.246L307.556 173.626Z" fill="#313553"/>
<path d="M128.846 36.9561C131.889 36.5623 134.979 36.7345 137.96 37.4641" stroke="#313553" stroke-width="1.276" stroke-linecap="round" stroke-linejoin="round"/>
<path d="M135.188 37.228C135.188 37.228 134.216 39.598 134.852 40.76L136.536 41.396C137.016 40.8957 137.382 40.2963 137.605 39.6398C137.829 38.9832 137.907 38.2856 137.832 37.596L135.188 37.228Z" fill="#313553"/>
<path d="M144.72 39.3041C146.953 39.2027 149.189 39.4428 151.35 40.0161" stroke="#313553" stroke-width="1.276" stroke-linecap="round" stroke-linejoin="round"/>
<path d="M148.534 39.8861C148.534 39.8861 147.564 42.2541 148.198 43.4161L149.882 44.0521C150.363 43.552 150.728 42.9525 150.952 42.296C151.176 41.6394 151.253 40.9417 151.178 40.2521L148.534 39.8861Z" fill="#313553"/>
<path d="M128.422 30.952C130.059 30.1567 131.849 29.7259 133.669 29.6893C135.488 29.6527 137.294 30.0112 138.962 30.74C139.388 30.966 140.082 31.28 139.686 32.526C139.29 33.772 139.206 33.858 137.498 33.636C135.742 33.1063 133.907 32.8903 132.076 32.998C128.846 33.732 126.436 31.868 128.422 30.952Z" fill="#313553"/>
<path d="M141.28 32.202L140.54 33.858" stroke="#313553" stroke-width="1.276" stroke-linecap="round" stroke-linejoin="round"/>
<path d="M154.496 33.0281C153.653 32.4997 152.695 32.1805 151.703 32.097C150.711 32.0135 149.714 32.1682 148.794 32.5481C148.334 32.6901 147.594 32.8741 147.756 34.1701C147.918 35.4661 147.982 35.5701 149.702 35.6641C151.422 35.7581 150.828 34.8241 152.598 35.3941C152.955 35.4685 153.308 35.5667 153.652 35.6881C154.326 35.9901 155.2 33.4821 154.496 33.0281Z" fill="#313553"/>
<path d="M146.248 33.5601L146.67 35.3241" stroke="#313553" stroke-width="1.276" stroke-linecap="round" stroke-linejoin="round"/>
<path d="M144.688 35.2681C144.286 36.3896 144.137 37.5864 144.253 38.7723C144.369 39.9582 144.746 41.1036 145.358 42.1261C145.358 42.1261 147.938 46.9701 147.312 48.5981C146.686 50.2261 141.686 51.0321 141.686 51.0321" stroke="#313553" stroke-width="1.276" stroke-linecap="round" stroke-linejoin="round"/>
<path d="M141.788 48.8681C140.915 48.8439 140.043 48.9518 139.202 49.1881" stroke="#313553" stroke-width="1.276" stroke-linecap="round" stroke-linejoin="round"/>
<path d="M131.6 52.7241C131.6 52.7241 134.836 58.4761 137.914 58.9141C140.992 59.3521 144.6 55.0381 144.6 55.0381C144.6 55.0381 132.458 53.0381 131.52 52.4121C131.261 52.2677 131.054 52.0467 130.925 51.7796C130.797 51.5125 130.755 51.2123 130.804 50.9201" stroke="#313553" stroke-width="1.276" stroke-linecap="round" stroke-linejoin="round"/>
<path d="M105.82 33.868C105.82 33.868 102.73 40.89 104.29 44.586C104.998 46.5495 106.348 48.2165 108.122 49.3173C109.895 50.4182 111.988 50.8885 114.062 50.652" stroke="#313553" stroke-width="1.276" stroke-linecap="round" stroke-linejoin="round"/>
<path d="M112.12 50.7461C110.932 55.4315 109.459 60.04 107.71 64.5461" stroke="#313553" stroke-width="1.276" stroke-linecap="round" stroke-linejoin="round"/>
<path d="M110.986 36.748C107.242 36.22 104.552 43.204 111.586 46.89" stroke="#313553" stroke-width="1.276" stroke-linecap="round" stroke-linejoin="round"/>
<path d="M149.432 16.7941C149.432 16.7941 154.754 26.4861 154.496 33.6661C153.89 36.1724 153.419 38.7094 153.084 41.2661C152.918 43.5981 154.508 46.8821 150.394 54.9241C144.626 66.2041 144.322 67.9401 139.468 69.3241C134.614 70.7081 122.05 62.8961 119.684 59.2681" stroke="#313553" stroke-width="1.276" stroke-linecap="round" stroke-linejoin="round"/>
<path d="M105.95 35.2681C105.95 35.2681 107.62 31.5241 109.914 32.2881C112.006 32.9821 114.17 37.4881 115.066 40.4501C115.136 40.6856 115.28 40.8923 115.477 41.0393C115.673 41.1863 115.912 41.2659 116.158 41.2661H118.158C118.334 41.2667 118.508 41.2263 118.666 41.1481C118.825 41.0698 118.962 40.9558 119.069 40.8151C119.175 40.6744 119.247 40.5109 119.279 40.3375C119.311 40.1641 119.303 39.9856 119.254 39.8161C118.588 37.4981 117.454 33.0761 118.088 31.6881C118.956 29.7761 120.934 32.3841 121.87 25.0141C122.806 17.6441 124.962 15.4141 129.816 17.2141C134.67 19.0141 143.028 22.0701 146.254 21.7801C149.48 21.4901 151.956 14.2881 152.932 10.6681C153.908 7.04809 151.876 7.58608 150.062 9.53408C150.062 9.53408 150.554 1.78209 147.416 0.612086C144.278 -0.557914 142.642 5.02609 142.642 5.02609C142.642 5.02609 143.842 -0.441918 140.546 0.0780822C137.25 0.598082 135.912 4.44808 134.078 4.54608C132.244 4.64408 120.954 1.81408 113.456 9.82408C105.958 17.8341 101.81 25.9401 105.95 35.2681Z" fill="#313553"/>
<path d="M126.666 65.6461L132.744 76.7061L136.194 69.2501L126.666 65.6461Z" fill="#313553"/>
<path d="M136.2 69.2501L130.358 83.2681C130.358 83.2681 134.402 89.2401 134.854 93.2461" stroke="#313553" stroke-width="1.276" stroke-linecap="round" stroke-linejoin="round"/>
<path d="M116.55 43.8241H119.282" stroke="#313553" stroke-width="1.276" stroke-linecap="round" stroke-linejoin="round"/>
<path d="M117.252 46.2701H118.794" stroke="#313553" stroke-width="1.276" stroke-linecap="round" stroke-linejoin="round"/>
<path d="M110.472 54.9881C110.472 54.9881 94.146 51.8581 86.166 56.2021C80.2016 59.7353 74.6034 63.8529 69.454 68.4941C69.454 68.4941 73.012 70.6941 83.172 63.4061C93.332 56.1181 108.2 65.6461 108.2 65.6461L109.924 58.4681L110.472 54.9881Z" fill="#313553"/>
<path d="M71.2 67.7801C71.2 67.7801 64.124 73.3801 64.13 76.5141C64.136 79.6481 65.762 79.9761 65.276 81.3241C64.79 82.6721 61.816 84.7081 64.13 88.7661C64.13 88.7661 83.58 73.6181 91.668 74.7661C99.756 75.9141 124.78 96.2681 135.8 98.0221C135.8 98.0221 134.696 84.7861 124.286 76.7061C113.876 68.6261 107.714 64.5541 107.714 64.5541" stroke="#313553" stroke-width="1.276" stroke-linecap="round" stroke-linejoin="round"/>
<path d="M136.236 61.4421C137.03 61.9799 137.982 62.2323 138.938 62.1581" stroke="#313553" stroke-width="1.276" stroke-linecap="round" stroke-linejoin="round"/>
<path d="M119.684 68.2921C119.684 68.2921 126.126 77.7321 128.204 80.4461" stroke="#313553" stroke-width="1.276" stroke-linecap="round" stroke-linejoin="round"/>
<path d="M64.138 88.7661C64.138 88.7661 61.138 106.38 61.27 114.194C61.402 122.008 51.356 140.194 81.596 154.686C81.596 154.686 108.358 183.254 114.766 186.39C121.174 189.526 121.982 191.402 134.686 185.73C147.39 180.058 165.956 166.112 173.432 151.246C173.432 151.246 178.384 149.846 179.508 148.404C180.632 146.962 180.232 141.846 181.178 140.666C182.124 139.486 184.812 142.692 184.49 134.266L187.434 131.304L179.384 110.564C177.863 112.144 176.081 113.452 174.118 114.43C170.62 116.26 157.896 119.594 158.08 124.592C158.08 124.592 148.724 126.214 143.08 132.336C137.436 138.458 135.6 135.386 133.494 138.374C130.96 142.737 128.657 147.231 126.596 151.836" stroke="#313553" stroke-width="1.276" stroke-linecap="round" stroke-linejoin="round"/>
<path d="M104.578 99.1641C106.799 101.375 108.606 103.965 109.914 106.812C111.54 112.4 113.822 129.668 113.822 129.668L122.126 130.918L109.126 146.422" stroke="#313553" stroke-width="1.276" stroke-linecap="round" stroke-linejoin="round"/>
<path d="M122.126 130.918C122.126 130.918 121.072 153.692 118.418 162.68C118.418 162.68 123.75 149.02 127.722 143.184" stroke="#313553" stroke-width="1.276" stroke-linecap="round" stroke-linejoin="round"/>
<path d="M121.656 138.558C123.34 137.391 125.171 136.449 127.1 135.758C128.076 135.854 131.068 142.602 131.068 142.602" stroke="#313553" stroke-width="1.276" stroke-linecap="round" stroke-linejoin="round"/>
<path d="M135.8 98.0221C140.405 93.0155 143.005 86.4879 143.102 79.6861C142.676 76.1433 141.914 72.649 140.828 69.2501" stroke="#313553" stroke-width="1.276" stroke-linecap="round" stroke-linejoin="round"/>
<path d="M71.722 76.0181C71.722 76.0181 89.386 65.2941 96.8 66.2681C104.214 67.2421 83 76.6981 83 76.6981" stroke="#313553" stroke-width="1.276" stroke-linecap="round" stroke-linejoin="round"/>
<path d="M112.684 121.692C112.684 121.692 114.736 111.422 116.312 111.818C117.888 112.214 115.884 124.904 115.884 124.904" stroke="#313553" stroke-width="1.276" stroke-linecap="round" stroke-linejoin="round"/>
<path d="M124.578 188.972C124.578 188.972 140.672 177.716 143.106 172.406" stroke="#313553" stroke-width="1.276" stroke-linecap="round" stroke-linejoin="round"/>
<path d="M184.49 134.268C184.49 134.268 177.542 124.184 177.278 126.56C177.014 128.936 179.226 134.268 179.226 134.268" stroke="#313553" stroke-width="1.276" stroke-linecap="round" stroke-linejoin="round"/>
<path d="M141.788 72.4941C143.457 75.1406 146.049 77.0729 149.062 77.9161C153.708 78.9161 167.106 78.8381 164.774 104.348L165.044 118.176" stroke="#313553" stroke-width="1.276" stroke-linecap="round" stroke-linejoin="round"/>
<path d="M63.268 140.068C63.268 140.068 63.486 175.812 60.65 192.582C57.814 209.352 50.464 234.582 63.55 237.182C76.636 239.782 97.786 238.74 102.25 238.12" stroke="#313553" stroke-width="1.276" stroke-linecap="round" stroke-linejoin="round"/>
<path d="M163.102 166.212C163.102 166.212 163.818 199.666 169.188 217.212C174.558 234.758 168.824 234.756 154.506 235.114" stroke="#313553" stroke-width="1.276" stroke-linecap="round" stroke-linejoin="round"/>
<path d="M171.174 156.024C171.174 156.024 179.662 195.586 181.718 200.024C183.774 204.462 186.028 216.574 183.032 223.052C183.032 223.052 191.448 229.762 184.542 244.67C185.246 248.502 185.686 252.378 185.858 256.27" stroke="#313553" stroke-width="1.276" stroke-linecap="round" stroke-linejoin="round"/>
<path d="M126.098 108.804C125.751 108.768 125.417 108.654 125.121 108.471C124.824 108.287 124.574 108.039 124.387 107.744C124.201 107.449 124.084 107.116 124.045 106.77C124.006 106.424 124.046 106.073 124.162 105.744C124.979 103.571 125.547 101.313 125.856 99.0121C126.19 96.2225 126.048 93.3965 125.438 90.6541C125.394 90.4939 125.384 90.3262 125.409 90.1619C125.435 89.9977 125.495 89.8407 125.585 89.7014C125.676 89.5621 125.795 89.4436 125.935 89.3537C126.074 89.2638 126.232 89.2046 126.396 89.1801C126.609 89.1444 126.828 89.1687 127.029 89.2502C127.229 89.3318 127.402 89.4675 127.53 89.6421C129.4 92.5722 130.305 96.015 130.116 99.4861C130.168 102.26 129.582 105.01 128.404 107.522C128.196 107.946 127.864 108.296 127.452 108.525C127.04 108.754 126.567 108.851 126.098 108.804Z" fill="#313553"/>
<path d="M125.856 107.532L124.242 112.25" stroke="#313553" stroke-width="1.276" stroke-linecap="round" stroke-linejoin="round"/>
<path d="M141.69 106.248C141.343 106.282 140.993 106.237 140.666 106.117C140.339 105.996 140.044 105.803 139.802 105.551C139.561 105.299 139.38 104.996 139.273 104.665C139.166 104.333 139.135 103.981 139.184 103.636C139.552 101.344 139.66 99.0181 139.504 96.7021C139.275 93.9018 138.574 91.1605 137.43 88.5941C137.355 88.446 137.312 88.2836 137.304 88.1177C137.296 87.9517 137.324 87.786 137.385 87.6315C137.445 87.4769 137.538 87.337 137.657 87.2209C137.776 87.1049 137.918 87.0153 138.074 86.9581C138.276 86.8826 138.494 86.8639 138.706 86.9041C138.918 86.9443 139.114 87.0418 139.274 87.1861C141.691 89.6847 143.262 92.8789 143.766 96.3181C144.369 99.0266 144.343 101.838 143.688 104.534C143.57 104.99 143.314 105.398 142.957 105.705C142.599 106.011 142.156 106.201 141.688 106.248H141.69Z" fill="#313553"/>
<path d="M141.2 105.052L140.556 109.996" stroke="#313553" stroke-width="1.276" stroke-linecap="round" stroke-linejoin="round"/>
<path d="M63.55 237.178C63.5414 240.488 64.4459 243.735 66.164 246.564C66.164 246.564 151 250.008 167.694 242.588C168.464 239.375 168.905 236.091 169.01 232.788" stroke="#313553" stroke-width="1.276" stroke-linecap="round" stroke-linejoin="round"/>
<path d="M66.164 246.564L65.05 261.294C65.05 261.294 119.396 264.586 137.3 262.25C149.287 260.8 161.352 260.091 173.426 260.126L167.694 242.588C143.966 247.484 118.262 247.966 87.936 247.362C79.442 247.194 69.76 246.996 66.164 246.564Z" fill="#313553"/>
<path d="M92.778 238.726L64.744 243.668L63.548 237.716L76.032 238.68L92.778 238.726Z" fill="#313553"/>
<path d="M98.244 185.888C98.244 185.888 107.044 195.384 107.814 206.146C108.584 216.908 103.262 222.118 103.262 222.118" stroke="#313553" stroke-width="1.276" stroke-linecap="round" stroke-linejoin="round"/>
<path d="M155.624 186.9C155.624 186.9 153.04 188.972 152.572 201.046C152.006 215.684 159.72 219.446 159.72 219.446" stroke="#313553" stroke-width="1.276" stroke-linecap="round" stroke-linejoin="round"/>
<path d="M63.272 161.372C65.4242 162.635 67.6836 163.706 70.024 164.572C73.17 165.632 94.438 168.936 98.978 172.236L82.512 155.668C82.512 155.668 66.044 144.094 63.272 141.338V161.372Z" fill="#313553"/>
<path d="M121.076 80.446C121.076 80.446 133.624 91.992 135.796 98.022" stroke="#313553" stroke-width="1.276" stroke-linecap="round" stroke-linejoin="round"/>
<path d="M180.642 113.806C180.642 113.806 198.884 113.086 204.266 112.544C209.648 112.002 209.774 114.27 211.77 119.23C213.766 124.19 214.63 127.25 214.454 129C214.278 130.75 212.086 131.97 210.546 132.178C209.783 132.79 208.884 133.209 207.925 133.401C206.966 133.592 205.976 133.551 205.036 133.28C205.036 133.28 197.436 132.208 196.104 130.918C194.772 129.628 195.408 126.958 196.684 126.718C197.96 126.478 200.5 127.68 200.57 129.27" stroke="#313553" stroke-width="1.276" stroke-linecap="round" stroke-linejoin="round"/>
<path d="M202.52 116.7C203.45 116.714 204.352 117.017 205.101 117.567C205.851 118.116 206.411 118.886 206.704 119.768C207.458 122.768 207.32 131.7 205.036 133.28" stroke="#313553" stroke-width="1.276" stroke-linecap="round" stroke-linejoin="round"/>
<path d="M210.062 132.534C210.062 132.534 212.146 132.036 211.152 127.334C210.046 122.088 210.152 117.464 207.114 115.658" stroke="#313553" stroke-width="1.276" stroke-linecap="round" stroke-linejoin="round"/>
<path d="M202.776 127.068C202.776 127.068 199.216 128.232 197.884 126.21" stroke="#313553" stroke-width="1.276" stroke-linecap="round" stroke-linejoin="round"/>
<path d="M199.478 123.756C198.303 125.151 196.845 126.28 195.2 127.068C193.242 127.668 188.572 128.54 187.438 127.068" stroke="#313553" stroke-width="1.276" stroke-linecap="round" stroke-linejoin="round"/>
<path d="M187.2 130.34C187.2 130.34 192.822 133.968 195.58 134.268C198.338 134.568 199.058 133.056 202.208 135.246C205.358 137.436 209.06 137.356 210.912 135.246C211.42 134.666 212 132.924 210.538 132.178" stroke="#313553" stroke-width="1.276" stroke-linecap="round" stroke-linejoin="round"/>
<path d="M213.82 130.368C214.388 130.883 215.069 131.259 215.808 131.464C216.394 132.055 217.113 132.496 217.905 132.751C218.696 133.006 219.538 133.067 220.358 132.93C220.358 132.93 226.888 132.764 228.142 131.802C229.396 130.84 229.114 128.522 228.058 128.202C227.002 127.882 224.738 128.646 224.524 129.984" stroke="#313553" stroke-width="1.276" stroke-linecap="round" stroke-linejoin="round"/>
<path d="M240.708 121.36C240.708 121.36 227.524 116.454 223.026 115.474C218.528 114.494 218.202 116.396 216.026 120.398C215.108 122.088 214.396 123.51 213.876 124.702" stroke="#313553" stroke-width="1.276" stroke-linecap="round" stroke-linejoin="round"/>
<path d="M224.098 119.156C223.311 119.078 222.519 119.247 221.832 119.639C221.145 120.031 220.597 120.627 220.264 121.344C219.334 123.802 218.582 131.374 220.358 132.93" stroke="#313553" stroke-width="1.276" stroke-linecap="round" stroke-linejoin="round"/>
<path d="M216.182 131.81C216.182 131.81 214.47 131.188 215.766 127.302C217.212 122.974 217.566 119.054 220.316 117.822" stroke="#313553" stroke-width="1.276" stroke-linecap="round" stroke-linejoin="round"/>
<path d="M222.874 127.902C222.874 127.902 225.77 129.23 227.094 127.652" stroke="#313553" stroke-width="1.276" stroke-linecap="round" stroke-linejoin="round"/>
<path d="M225.984 125.418C226.842 126.714 227.966 127.812 229.282 128.638C230.882 129.346 234.744 130.526 235.846 129.392" stroke="#313553" stroke-width="1.276" stroke-linecap="round" stroke-linejoin="round"/>
<path d="M215.8 131.468C214.49 131.956 214.812 133.484 215.186 134.026C216.546 135.99 219.668 136.426 222.544 134.872C225.42 133.318 227.796 135.312 230.158 135.326C232.279 135.025 234.315 134.291 236.14 133.168" stroke="#313553" stroke-width="1.276" stroke-linecap="round" stroke-linejoin="round"/>
<path d="M104.578 29.6621H17.952V166.212H62.728" stroke="#313553" stroke-width="1.276" stroke-linecap="round" stroke-linejoin="round"/>
<path d="M202.776 135.884V166.212H173.942" stroke="#313553" stroke-width="1.276" stroke-linecap="round" stroke-linejoin="round"/>
<path d="M154.41 29.6621H202.776V112.466" stroke="#313553" stroke-width="1.276" stroke-linecap="round" stroke-linejoin="round"/>
<path d="M20.908 29.6681C22.7652 38.6995 23.4015 47.9394 22.8 57.1401H86.166" stroke="#313553" stroke-width="1.276" stroke-linecap="round" stroke-linejoin="round"/>
<path d="M197.116 29.6681C197.116 29.6681 197.814 43.8441 199.054 57.1461H149.712" stroke="#313553" stroke-width="1.276" stroke-linecap="round" stroke-linejoin="round"/>
<path d="M32.948 57.1401C32.948 57.1401 31.09 85.1041 31.592 92.8961C32.094 100.688 33.782 112.962 33.522 121.578C33.3569 126.694 33.6858 131.815 34.504 136.868" stroke="#313553" stroke-width="1.276" stroke-linecap="round" stroke-linejoin="round"/>
<path d="M34.298 142.976C35.84 142.976 37.09 141.726 37.09 140.184C37.09 138.642 35.84 137.392 34.298 137.392C32.756 137.392 31.506 138.642 31.506 140.184C31.506 141.726 32.756 142.976 34.298 142.976Z" stroke="#313553" stroke-width="1.276" stroke-linecap="round" stroke-linejoin="round"/>
<path d="M26.22 34.4421C26.22 34.4421 75.472 35.6421 79.134 35.7121C82.796 35.7821 100.954 35.7121 100.954 35.7121" stroke="#313553" stroke-width="1.276" stroke-linecap="round" stroke-linejoin="round"/>
<path d="M22.786 43.1401C29.34 42.3347 35.9332 41.8887 42.536 41.8041C48.324 42.1041 80.06 42.5401 86.166 42.4541" stroke="#313553" stroke-width="1.276" stroke-linecap="round" stroke-linejoin="round"/>
<path d="M31.506 50.7461C31.506 50.7461 88.462 50.9201 94.418 50.9201" stroke="#313553" stroke-width="1.276" stroke-linecap="round" stroke-linejoin="round"/>
<path d="M156.918 39.1901C156.918 39.1901 189.536 39.6601 194.018 39.2981" stroke="#313553" stroke-width="1.276" stroke-linecap="round" stroke-linejoin="round"/>
<path d="M198.502 50.7461C198.502 50.7461 164.614 51.3601 161.334 50.7461" stroke="#313553" stroke-width="1.276" stroke-linecap="round" stroke-linejoin="round"/>
<path d="M196.048 15.7221C196.048 15.7221 245.83 16.3381 260.55 15.7221C275.27 15.1061 282.71 15.0841 282.71 15.0841" stroke="#313553" stroke-width="1.276" stroke-linecap="round" stroke-linejoin="round"/>
<path d="M216.824 6.66809C216.824 6.66809 275.288 7.06809 282.71 7.11009C290.132 7.15209 298.434 7.31009 298.434 7.31009" stroke="#313553" stroke-width="1.276" stroke-linecap="round" stroke-linejoin="round"/>
<path d="M22.786 178.28H54.476" stroke="#313553" stroke-width="1.276" stroke-linecap="round" stroke-linejoin="round"/>
<path d="M180.284 178.28H231.104" stroke="#313553" stroke-width="1.276" stroke-linecap="round" stroke-linejoin="round"/>
<path d="M1.144 227.254H22.786" stroke="#313553" stroke-width="1.276" stroke-linecap="round" stroke-linejoin="round"/>
<path d="M33.026 227.254H48.29" stroke="#313553" stroke-width="1.276" stroke-linecap="round" stroke-linejoin="round"/>
<path d="M11.964 214.538H38.63" stroke="#313553" stroke-width="1.276" stroke-linecap="round" stroke-linejoin="round"/>
<path d="M342.286 227.254H355.638" stroke="#313553" stroke-width="1.276" stroke-linecap="round" stroke-linejoin="round"/>
<path d="M365.88 227.254H381.144" stroke="#313553" stroke-width="1.276" stroke-linecap="round" stroke-linejoin="round"/>
<path d="M337.804 214.538H371.484" stroke="#313553" stroke-width="1.276" stroke-linecap="round" stroke-linejoin="round"/>
<path d="M184.4 213.63C184.4 213.63 193.164 203.23 205.828 203.23C217.146 203.23 227.256 210.596 227.256 210.596" stroke="#313553" stroke-width="1.276" stroke-linecap="round" stroke-linejoin="round"/>
<path d="M183.766 204.704C189.971 199.498 197.737 196.514 205.832 196.224C221.396 196.224 229.81 204.224 229.81 204.224" stroke="#313553" stroke-width="1.276" stroke-linecap="round" stroke-linejoin="round"/>
<path d="M376.43 187.974C374.648 187.774 363.962 188.174 358.262 187.974C352.562 187.774 338.662 187.974 338.662 187.974L334.032 165.174C334.032 165.174 343.306 164.51 348.61 164.374C356.724 164.245 364.838 164.579 372.914 165.374L367.458 187.574" stroke="#313553" stroke-width="1.276" stroke-linecap="round" stroke-linejoin="round"/>
<path d="M353.958 164.068C353.958 164.068 361.146 134.268 360.13 114.198C359.636 104.46 358.642 91.2621 362.06 91.2601C367.766 91.2601 367.982 105.962 367.754 117.974C367.388 137.192 358.31 164.35 358.31 164.35" stroke="#313553" stroke-width="1.276" stroke-linecap="round" stroke-linejoin="round"/>
<path d="M360.862 164.34C360.862 164.34 369.922 144.988 371.43 133.584C373.512 117.836 381.144 118.872 376.894 136.848C372.632 154.878 365.242 164.34 365.242 164.34" stroke="#313553" stroke-width="1.276" stroke-linecap="round" stroke-linejoin="round"/>
<path d="M347.978 164.366C347.978 164.366 345.178 141.872 344.084 128.544C342.99 115.216 344.65 109.088 344.2 97.0801C343.786 86.0941 350.228 85.7741 351 102.89C351.772 120.006 352.092 121.446 352.426 129.864C352.76 138.282 351.76 164.366 351.76 164.366" stroke="#313553" stroke-width="1.276" stroke-linecap="round" stroke-linejoin="round"/>
<path d="M339.48 164.738C337.592 157.184 334.63 145.102 332.852 136.69C330.086 123.608 330.954 117.318 328.988 105.462C327.188 94.6161 333.538 93.4861 336.458 110.368C339.378 127.25 339.888 128.636 341.284 136.944C342.222 142.544 343.578 156.182 344.362 164.478" stroke="#313553" stroke-width="1.276" stroke-linecap="round" stroke-linejoin="round"/>
<path d="M251.4 190.642C250.638 193.729 250.277 196.901 250.326 200.08C250.326 200.08 237.926 217.48 237.004 238.19C236.082 258.9 238.078 261.542 238.078 261.542" stroke="#313553" stroke-width="1.276" stroke-linecap="round" stroke-linejoin="round"/>
<path d="M254.832 201.2C254.832 201.2 248.478 211.982 245.36 215.844" stroke="#313553" stroke-width="1.276" stroke-linecap="round" stroke-linejoin="round"/>
<path d="M274.05 191.734C274.09 194.67 273.781 197.601 273.128 200.464C272.038 207.647 271.623 214.916 271.89 222.176" stroke="#313553" stroke-width="1.276" stroke-linecap="round" stroke-linejoin="round"/>
<path d="M264.23 242.708C264.23 242.708 280.552 251.96 282.752 253.234L285.306 261.542" stroke="#313553" stroke-width="1.276" stroke-linecap="round" stroke-linejoin="round"/>
<path d="M271.28 250.92C275.05 251.937 278.882 252.71 282.752 253.234" stroke="#313553" stroke-width="1.276" stroke-linecap="round" stroke-linejoin="round"/>
<path d="M318.236 190.44C318.446 192.835 318.446 195.245 318.236 197.64C318.236 197.64 331.312 209.994 337.804 225.066C344.296 240.138 350.95 259.642 350.95 259.642" stroke="#313553" stroke-width="1.276" stroke-linecap="round" stroke-linejoin="round"/>
<path d="M302.178 203.256C302.178 203.256 315.41 215.59 322.3 220.038" stroke="#313553" stroke-width="1.276" stroke-linecap="round" stroke-linejoin="round"/>
<path d="M280.994 204.704C281.965 204.704 282.752 202.592 282.752 199.986C282.752 197.38 281.965 195.268 280.994 195.268C280.023 195.268 279.236 197.38 279.236 199.986C279.236 202.592 280.023 204.704 280.994 204.704Z" stroke="#313553" stroke-width="1.276" stroke-linecap="round" stroke-linejoin="round"/>
<path d="M237.282 161.35C237.282 161.35 234.362 190.062 233.924 196.224C233.486 202.386 227.26 202.952 225.37 224.596C224.323 236.805 225.036 249.102 227.488 261.108" stroke="#313553" stroke-width="1.276" stroke-linecap="round" stroke-linejoin="round"/>
<path d="M37.614 185.648L9.95799 198.092" stroke="#313553" stroke-width="1.276" stroke-linecap="round" stroke-linejoin="round"/>
<path d="M39.066 188.876L11.412 201.32" stroke="#313553" stroke-width="1.276" stroke-linecap="round" stroke-linejoin="round"/>
<path d="M40.91 184.164L41.272 184.002C41.7001 183.81 42.1871 183.795 42.6259 183.962C43.0647 184.128 43.4194 184.462 43.612 184.89C43.8045 185.318 43.8191 185.805 43.6525 186.244C43.486 186.683 43.152 187.037 42.724 187.23L41.912 187.596" stroke="#313553" stroke-width="1.276" stroke-linecap="round" stroke-linejoin="round"/>
<path d="M7.36401 199.26L3.686 202.856L8.816 202.488" stroke="#313553" stroke-width="1.276" stroke-linecap="round" stroke-linejoin="round"/>
<path d="M30.34 194.382C27.341 198.608 24.0792 202.641 20.574 206.458C17.81 208.872 46.132 207.658 46.132 207.658L58.5 188.964L44.784 188.564" stroke="#313553" stroke-width="1.276" stroke-linecap="round" stroke-linejoin="round"/>
<path d="M26.4 202.856L30 201.64C30.2923 201.541 30.6042 201.515 30.9089 201.563C31.2137 201.611 31.5023 201.732 31.75 201.916V201.916C32.1093 202.182 32.5502 202.313 32.9963 202.288C33.4424 202.262 33.8655 202.081 34.192 201.776L34.424 201.56C34.7374 201.268 35.1397 201.09 35.5665 201.054C35.9932 201.017 36.4198 201.125 36.778 201.36L37.778 202.016C38.143 202.256 38.5789 202.363 39.0133 202.32C39.4477 202.278 39.8545 202.088 40.166 201.782L40.254 201.696C40.582 201.374 41.0149 201.181 41.4736 201.152C41.9322 201.123 42.386 201.26 42.752 201.538L44.592 202.938" stroke="#313553" stroke-width="1.276" stroke-linecap="round" stroke-linejoin="round"/>
<path d="M33.096 197.012L36.07 195.612C36.3282 195.491 36.6198 195.46 36.8977 195.524C37.1757 195.589 37.4237 195.745 37.602 195.968V195.968C37.7087 196.102 37.8414 196.213 37.9923 196.295C38.1431 196.376 38.3088 196.426 38.4795 196.441C38.6502 196.457 38.8222 196.438 38.9852 196.385C39.1483 196.332 39.2989 196.247 39.428 196.134L41.028 194.734C41.165 194.615 41.3258 194.527 41.4998 194.475C41.6737 194.423 41.8567 194.409 42.0365 194.434C42.2163 194.459 42.3887 194.522 42.5421 194.619C42.6955 194.716 42.8264 194.844 42.926 194.996L44.272 197.052C44.4527 197.327 44.7332 197.522 45.0543 197.594C45.3755 197.667 45.7123 197.613 45.994 197.442L48.488 195.928" stroke="#313553" stroke-width="1.276" stroke-linecap="round" stroke-linejoin="round"/>
<path d="M285.254 149.548C286.774 151.281 288.172 153.117 289.438 155.042" stroke="#313553" stroke-width="1.276" stroke-linecap="round" stroke-linejoin="round"/>
<path d="M268.262 106.354C268.262 106.354 277.958 105.24 279.83 104.568" stroke="#313553" stroke-width="1.276" stroke-linecap="round" stroke-linejoin="round"/>
<path d="M278.638 98.2121L280.688 106.67" stroke="#313553" stroke-width="1.276" stroke-linecap="round" stroke-linejoin="round"/>
<path d="M314.978 60.5441C314.983 62.2521 314.713 63.9498 314.178 65.5721C313.324 67.9321 307.156 72.6601 305.036 72.8681C303.974 72.9701 303.048 75.0161 302.014 77.0681C301.183 79.0003 299.64 80.5376 297.704 81.3601C290.816 82.8001 292.334 85.5601 295.53 85.0381C298.726 84.5161 302.694 82.2381 305.33 75.8961C305.33 75.8961 311.008 73.1121 312.214 76.9181C313.42 80.7241 310.4 90.3961 300.778 89.2081L302.728 105.272L309.298 107.734" stroke="#313553" stroke-width="1.276" stroke-linecap="round" stroke-linejoin="round"/>
<path d="M314.182 65.5721C314.578 67.3256 314.553 69.1479 314.11 70.8901C313.304 72.6859 311.896 74.1444 310.13 75.0141" stroke="#313553" stroke-width="1.276" stroke-linecap="round" stroke-linejoin="round"/>
<path d="M314.11 70.8901C314.11 70.8901 315.778 72.8081 312.216 76.9261" stroke="#313553" stroke-width="1.276" stroke-linecap="round" stroke-linejoin="round"/>
<path d="M301.2 77.45C298.028 75.556 298.562 70.412 299.012 68.108C299.462 65.804 301.352 61.928 296.546 60.67C291.74 59.412 292.746 53.27 290.42 51.442C288.094 49.614 284.68 52.722 280.22 52.076C275.76 51.43 276.4 47.718 273.552 49.35C272.071 50.2608 270.443 50.9071 268.74 51.26C268.74 51.26 276.774 34.49 296.218 42.2" stroke="#313553" stroke-width="1.276" stroke-linecap="round" stroke-linejoin="round"/>
<path d="M277 46.3461C282.12 40.8801 289.37 40.7261 297.568 42.4741" stroke="#313553" stroke-width="1.276" stroke-linecap="round" stroke-linejoin="round"/>
<path d="M283.322 48.1381C283.322 48.1381 295.47 40.7721 299.278 42.8441C300.101 43.461 300.849 44.1726 301.506 44.9641C301.506 44.9641 303.648 43.8761 304.602 45.1641" stroke="#313553" stroke-width="1.276" stroke-linecap="round" stroke-linejoin="round"/>
<path d="M307.366 46.7441C307.366 46.7441 303.304 45.7101 303.326 48.9641C303.384 49.7839 303.711 50.5616 304.256 51.1765C304.802 51.7913 305.535 52.2088 306.342 52.3641C305.98 52.4269 305.637 52.5722 305.34 52.7886C305.042 53.005 304.799 53.2868 304.628 53.6123C304.457 53.9377 304.363 54.2981 304.353 54.6657C304.343 55.0332 304.418 55.3981 304.572 55.7321C305.674 58.4041 310.278 56.6941 310.278 56.6941C310.278 56.6941 312.32 61.9761 319.396 60.5861C320.018 60.5451 320.624 60.3762 321.177 60.09C321.73 59.8038 322.219 59.4064 322.611 58.9227C323.004 58.4391 323.292 57.8796 323.458 57.2792C323.625 56.6789 323.665 56.0507 323.577 55.434C323.489 54.8174 323.275 54.2254 322.948 53.6954C322.621 53.1654 322.188 52.7086 321.676 52.3537C321.164 51.9989 320.584 51.7536 319.973 51.6332C319.362 51.5128 318.732 51.5199 318.124 51.6541" stroke="#313553" stroke-width="1.276" stroke-linecap="round" stroke-linejoin="round"/>
<path d="M305.62 46.6061C305.382 45.7294 305.341 44.8109 305.499 43.9163C305.657 43.0218 306.012 42.1733 306.536 41.4316C307.061 40.6899 307.743 40.0734 308.534 39.626C309.324 39.1787 310.204 38.9117 311.11 38.8441C316.072 37.9281 320.2 40.9841 318.926 45.8861" stroke="#313553" stroke-width="1.276" stroke-linecap="round" stroke-linejoin="round"/>
<path d="M319.142 43.6941C319.142 43.6941 323.942 43.7941 324.268 48.1381C324.594 52.4821 322.56 53.0941 322.56 53.0941" stroke="#313553" stroke-width="1.276" stroke-linecap="round" stroke-linejoin="round"/>
<path d="M290.412 51.4421C291.754 49.1387 293.904 47.4155 296.444 46.6061" stroke="#313553" stroke-width="1.276" stroke-linecap="round" stroke-linejoin="round"/>
<path d="M298.982 74.2481C298.982 74.2481 301.202 69.6481 304.34 69.4081C307.478 69.1681 309.752 64.9661 311.52 62.8561" stroke="#313553" stroke-width="1.276" stroke-linecap="round" stroke-linejoin="round"/>
<path d="M303.326 50.2201C303.326 50.2201 297.986 52.2481 296.444 54.4981" stroke="#313553" stroke-width="1.276" stroke-linecap="round" stroke-linejoin="round"/>
<path d="M299.6 65.5721C301.766 64.456 303.736 62.9957 305.434 61.2481C307.882 58.5861 308.738 58.8121 308.738 58.8121" stroke="#313553" stroke-width="1.276" stroke-linecap="round" stroke-linejoin="round"/>
<path d="M304.758 77.8681C304.758 77.8681 308.4 77.214 308.726 79.624C308.703 80.82 308.337 81.9841 307.67 82.9771C307.003 83.9702 306.064 84.7503 304.966 85.224" stroke="#313553" stroke-width="1.276" stroke-linecap="round" stroke-linejoin="round"/>
<path d="M268.724 51.2681C268.724 51.2681 262.952 58.1381 263.46 64.9641C263.46 64.9641 264.08 69.7921 264.188 71.1501C264.296 72.5081 261.376 76.5501 262.278 81.0121C263.28 84.7983 264.68 88.468 266.454 91.9601C268.724 97.4781 270.138 99.0001 276.11 98.3601C279.304 98.1035 282.434 97.328 285.378 96.0641" stroke="#313553" stroke-width="1.276" stroke-linecap="round" stroke-linejoin="round"/>
<path d="M269.326 50.1901C269.326 50.1901 266.364 51.1281 265.578 48.7621C265.358 48.0601 265.318 47.3143 265.461 46.5929C265.604 45.8714 265.925 45.1972 266.396 44.6321C266.396 44.6321 263.526 43.5901 265.362 39.5841C267.198 35.5781 271.444 38.1421 271.444 38.1421C271.444 38.1421 271.776 34.4581 274.844 33.9961C277.912 33.5341 279.844 37.3401 279.844 37.3401C279.844 37.3401 282.878 33.3601 285.364 36.1401C287.85 38.9201 286.942 40.1741 286.942 40.1741C282.592 40.4977 278.352 41.6956 274.476 43.6961C272.178 45.3287 270.392 47.5809 269.326 50.1901Z" fill="#313553"/>
<path d="M302.468 87.5621C303.412 87.5621 304.178 86.7965 304.178 85.8521C304.178 84.9077 303.412 84.1421 302.468 84.1421C301.524 84.1421 300.758 84.9077 300.758 85.8521C300.758 86.7965 301.524 87.5621 302.468 87.5621Z" fill="#313553"/>
<path d="M303.584 89.2481C304.58 89.8535 305.645 90.3383 306.756 90.6921C307.382 90.8578 307.998 91.0581 308.602 91.2921C308.836 91.3822 309.032 91.5515 309.155 91.7707C309.277 91.9899 309.32 92.2451 309.274 92.4921V92.4921C309.223 92.7722 309.063 93.0206 308.829 93.1829C308.595 93.3452 308.306 93.4082 308.026 93.3581C305.341 92.5105 302.87 91.0959 300.78 89.2101" stroke="#313553" stroke-width="1.276" stroke-linecap="round" stroke-linejoin="round"/>
<path d="M303.524 91.2981C303.758 93.1474 304.688 94.8381 306.124 96.0261C306.868 96.5981 307.46 97.0141 307.924 97.3121C308.282 97.5415 308.54 97.8982 308.645 98.3102C308.751 98.7222 308.696 99.1589 308.492 99.5321C308.377 99.7451 308.217 99.9305 308.023 100.076C307.829 100.221 307.606 100.323 307.369 100.373C307.133 100.424 306.888 100.423 306.651 100.371C306.415 100.318 306.193 100.215 306 100.068C305.6 99.7681 305.182 99.4261 304.768 99.0681C303.039 97.2652 301.81 95.0428 301.202 92.6201V89.8421L303.524 91.2981Z" fill="#313553"/>
<path d="M263.46 64.9561C263.46 64.9561 264.788 62.9941 266.322 63.3161C267.688 63.821 268.942 64.5873 270.014 65.5721" stroke="#313553" stroke-width="1.276" stroke-linecap="round" stroke-linejoin="round"/>
<path d="M278.1 65.9201C280.017 64.5996 282.236 63.7832 284.552 63.5461C285.554 63.7073 286.511 64.073 287.365 64.6204C288.219 65.1679 288.951 65.8853 289.516 66.7281" stroke="#313553" stroke-width="1.276" stroke-linecap="round" stroke-linejoin="round"/>
<path d="M265.35 68.6421C267.64 68.7002 269.813 69.6606 271.398 71.3141" stroke="#313553" stroke-width="1.276" stroke-linecap="round" stroke-linejoin="round"/>
<path d="M267.922 70.7161C267.78 72.0201 267.03 73.0061 266.246 72.9161C265.462 72.8261 264.944 71.7161 265.088 70.4041C265.232 69.0921 265.98 68.7521 266.762 68.8381C267.544 68.9241 268.064 69.4141 267.922 70.7161Z" fill="#313553"/>
<path d="M280.644 69.3721C280.644 69.3721 285.834 70.0861 288.15 72.7721" stroke="#313553" stroke-width="1.276" stroke-linecap="round" stroke-linejoin="round"/>
<path d="M283.216 71.446C283.074 72.748 282.324 73.7341 281.542 73.6461C280.76 73.5581 280.24 72.436 280.382 71.134C280.524 69.832 281.274 69.4821 282.056 69.5681C282.838 69.6541 283.358 70.142 283.216 71.446Z" fill="#313553"/>
<path d="M273.668 67.1181C273.668 67.1181 274.638 69.2461 274.198 70.1541C273.758 71.0621 270.704 75.4981 270.014 76.9261C269.324 78.3541 272.164 80.7061 272.164 80.7061" stroke="#313553" stroke-width="1.276" stroke-linecap="round" stroke-linejoin="round"/>
<path d="M274.378 79.2201C275.298 79.3737 276.181 79.7016 276.978 80.1861" stroke="#313553" stroke-width="1.276" stroke-linecap="round" stroke-linejoin="round"/>
<path d="M268.104 84.1421C270.169 84.6387 272.265 84.9995 274.378 85.2221C277.172 85.0588 279.951 84.7134 282.7 84.1881C282.7 84.1881 278.624 88.8481 274.378 88.9301C270.132 89.0121 268.104 84.1421 268.104 84.1421Z" stroke="#313553" stroke-width="1.276" stroke-linecap="round" stroke-linejoin="round"/>
<path d="M270.534 89.9601C270.824 90.5086 271.242 90.9792 271.753 91.3325C272.263 91.6858 272.85 91.9113 273.466 91.9901C274.913 91.9339 276.323 91.5217 277.572 90.7901" stroke="#313553" stroke-width="1.276" stroke-linecap="round" stroke-linejoin="round"/>
<path d="M268.104 84.1141C269.585 83.3911 271.169 82.9032 272.8 82.6681C274.2 82.7481 281.484 84.3941 281.484 84.3941L273.764 84.9421L268.104 84.1141Z" fill="#313553"/>
<path d="M280.54 103.248L282.7 97.5901L278.638 98.2121L279.83 103.13" fill="#313553"/>
</svg>
