<svg width="382" height="359" viewBox="0 0 382 359" fill="none" xmlns="http://www.w3.org/2000/svg">
<path d="M329.6 233.268C329.6 233.268 320 259.548 318.74 264.108C317.48 268.668 316.16 275.288 313.86 282.308C311.56 289.328 304.86 309.048 301 317.388C297.14 325.728 295.62 329.388 294.08 329.848C292.54 330.308 277.92 324.168 277.34 321.588C276.98 319.928 289.14 271.588 298.16 237.128C303.38 217.248 307.6 205.728 307.6 205.728C307.6 205.728 309.6 207.348 319.24 208.888C328.88 210.428 352 207.588 352 207.588C352 207.588 348.96 213.268 347.24 213.968C345.52 214.668 344.64 213.488 343.84 213.968C343.04 214.448 340.66 217.548 339.94 218.188C339.22 218.828 337.62 219.388 337.64 219.748C337.782 220.196 338.043 220.596 338.395 220.906C338.748 221.216 339.178 221.425 339.64 221.508C341.354 221.444 343.008 220.858 344.38 219.828C345.28 219.128 345.94 218.548 345.94 218.548C345.94 218.548 351.5 225.448 352.66 225.928C353.82 226.408 354.88 220.428 355.06 219.108C355.253 216.69 356.362 214.436 358.16 212.808C358.16 212.808 355.74 261.728 354.26 277.228C352.78 292.728 350.56 325.228 350.62 326.648C350.68 328.068 351.34 330.268 347.74 331.188C344.14 332.108 331.26 335.048 327.52 329.408C327.52 329.408 327.96 282.188 327.94 275.988C327.9 270.928 329.34 266.348 329.6 233.268Z" fill="#55DEFF"/>
<path d="M360.76 173.788C366.668 172.825 372.239 170.39 376.96 166.708C378.555 170.957 379.89 175.298 380.96 179.708C381.392 181.393 381.148 183.181 380.28 184.688C379.38 186.028 370.44 197.648 365.84 203.288C361.24 208.928 355.84 214.768 355.44 216.748C355.04 218.728 354.18 225.608 352.62 225.728C351.06 225.848 346.62 218.168 346.04 218.588C345.46 219.008 342.36 221.868 340.26 221.708C338.16 221.548 337.14 220.028 337.96 219.548C339.265 218.898 340.402 217.953 341.28 216.788C341.772 216.007 342.437 215.349 343.225 214.867C344.012 214.385 344.9 214.091 345.82 214.008C347.2 214.168 347.44 214.168 348.14 213.588C351.979 208.384 354.783 202.49 356.4 196.228C357.92 190.515 360.58 185.168 364.22 180.508L360.76 173.788Z" fill="#FFE8BB"/>
<path d="M221.9 125.708H257.5C257.951 125.729 258.376 125.924 258.686 126.252C258.996 126.581 259.166 127.017 259.16 127.468V136.028C259.16 136.243 259.117 136.456 259.033 136.655C258.949 136.853 258.825 137.032 258.67 137.181C258.515 137.331 258.332 137.447 258.131 137.524C257.93 137.601 257.715 137.636 257.5 137.628H221.9V125.708Z" fill="#55DEFF"/>
<path d="M259.16 142.148H221.92V154.068H259.16V142.148Z" fill="#55DEFF"/>
<path d="M309 171.368C309 171.368 300.56 182.628 297 182.948C293.44 183.268 288.2 179.908 284.04 175.328C280.235 171.314 276.881 166.894 274.04 162.148C271.24 157.348 266.66 150.148 265.38 150.468C264.1 150.788 259.78 150.948 258.22 149.428C257.109 148.06 256.334 146.45 255.96 144.728C255.265 143.898 254.851 142.869 254.78 141.788C254.92 140.468 255.32 140.428 255.32 140.428C255.32 140.428 254.62 138.808 255.32 138.108C256.02 137.408 256.44 137.408 256.44 137.408C256.44 137.408 255.92 135.528 256.72 134.928C257.52 134.328 258.02 134.408 258.02 134.408C258.02 134.408 258.26 132.748 259.7 132.668C261.14 132.588 263.06 134.928 264.32 137.668C264.32 137.668 268.16 136.208 269.28 137.668C271.28 140.448 271.4 143.328 271.44 147.168C278.46 153.368 273.88 149.508 293.44 165.608L295 163.448C296.942 166.168 299.771 168.127 303 168.988C305.012 169.399 307.05 169.666 309.1 169.788L309 171.368Z" fill="#FFE8BB"/>
<path d="M279.3 323.648L277.98 332.208C278.686 333.067 279.05 334.157 279 335.268C278.871 336.823 278.63 338.367 278.28 339.888C278.808 340.431 279.479 340.814 280.215 340.991C280.951 341.168 281.723 341.132 282.44 340.888C284.9 340.028 286.3 337.348 287.58 337.388C288.86 337.428 288.78 337.628 288.78 337.628L291.94 329.468C291.94 329.468 281.42 325.368 279.3 323.648Z" fill="#FFE8BB"/>
<path d="M333.3 343.048L332.68 343.768L331.5 332.208C336.237 333.079 341.101 332.984 345.8 331.928L344.76 343.768L343.72 343.308C343.72 343.308 344.38 337.948 342.7 336.928C341.02 335.908 336.44 334.528 334.46 337.168C332.48 339.808 332.58 341.268 333.3 343.048Z" fill="#FFE8BB"/>
<path d="M342.18 102.088L337.28 93.1481L319.7 94.3681C319.7 94.3681 319.06 100.228 318.84 101.308C318.905 102.693 318.609 104.072 317.98 105.308C316.76 108.048 317.98 112.628 318.3 113.548C318.62 114.468 319.54 116.868 320.12 119.128C320.7 121.388 324.12 122.248 324.12 122.248C324.214 123.513 324.002 124.783 323.5 125.948C322.74 127.228 321.32 126.148 321.32 126.148C321.32 126.148 322.68 135.968 332.4 135.108C334.998 135.044 337.49 134.06 339.43 132.331C341.371 130.603 342.636 128.242 343 125.668C341.96 123.668 341.62 113.248 341.72 112.108C342.011 112.121 342.301 112.071 342.571 111.961C342.84 111.85 343.082 111.682 343.28 111.468C344.96 109.848 344.68 108.928 346.36 107.348C348.04 105.768 347.74 99.4681 342.18 102.088ZM322.48 102.608C322.031 102.625 321.59 102.49 321.227 102.225C320.864 101.96 320.601 101.581 320.48 101.148C320.48 101.148 320.9 100.108 322.68 100.528C324.46 100.948 324.52 101.848 324.52 101.848C324.279 102.146 323.963 102.373 323.604 102.507C323.245 102.641 322.857 102.675 322.48 102.608ZM329.7 102.428C329.7 102.428 329.98 101.768 331.48 101.528C332.98 101.288 334.86 103.188 334.86 103.188C334.86 103.188 331 104.908 329.7 102.428Z" fill="#FFE8BB"/>
<path d="M221.94 163.268H246.38C247.971 163.268 249.497 163.9 250.623 165.025C251.748 166.151 252.38 167.677 252.38 169.268C252.38 170.859 251.748 172.386 250.623 173.511C249.497 174.636 247.971 175.268 246.38 175.268H222.8L221.94 163.268Z" fill="#55DEFF"/>
<path d="M101 129.548C83.24 129.548 69.7 129.968 55.22 129.548C54.42 138.128 55.22 147.128 55.04 155.788C55.04 163.788 54.68 171.788 54.78 179.788C54.743 180.059 54.7994 180.334 54.94 180.568C55.0936 180.725 55.2834 180.842 55.4926 180.908C55.7018 180.974 55.9242 180.988 56.14 180.948C68.54 180.828 69 181.108 101 181.108V129.548Z" fill="#55DEFF"/>
<path d="M100.72 93.2681C100.14 93.2681 92.48 93.2681 92.48 93.0281C92.48 95.0281 92.84 114.708 93.12 114.708H101L100.72 93.2681Z" fill="#55DEFF"/>
<path d="M47.22 82.0881C42.2 82.2881 37.48 82.6681 32.46 82.6481C31.3 82.6481 18.28 82.6481 18.26 82.4681C19.1168 93.2544 19.0431 104.094 18.04 114.868C21.36 114.868 38.04 114.868 47.22 114.868V82.0881Z" fill="#55DEFF"/>
<path d="M84.06 92.8881C74.9 93.1881 54.46 92.3281 54.46 92.8881C54.46 96.8881 54.96 100.508 54.92 104.468C54.92 107.908 54.92 111.368 54.92 114.808H84.46C84.9 114.808 84.46 104.928 84.46 104.248C84.46 103.568 83.98 92.8881 84.06 92.8881Z" fill="#55DEFF"/>
<path d="M137.96 92.3681C137.34 93.0881 112.2 92.9281 111.78 92.3681C111.35 85.9619 111.35 79.5342 111.78 73.1281C112.24 72.9081 137.54 72.6081 137.96 73.1281C138.38 73.6481 138.56 91.6481 137.96 92.3681Z" fill="#FFE8BB"/>
<path d="M137.96 127.768C137.8 127.948 130.64 127.628 123.64 127.588C117.82 127.588 111.96 127.848 111.78 127.768C111.42 121.36 111.42 114.936 111.78 108.528C112.12 108.288 137.78 108.128 137.96 108.528C138.14 108.928 138.24 127.408 137.96 127.768Z" fill="#FFE8BB"/>
<path d="M137.96 163.268C137.64 163.908 131.44 163.088 124.88 163.268C118.32 163.448 111.92 163.748 111.78 163.268C111.52 162.448 111.9 144.328 111.78 144.028C111.66 143.728 137.32 143.328 137.96 144.028C138.6 144.728 138.26 162.528 137.96 163.268Z" fill="#FFE8BB"/>
<path d="M137.96 200.008C137.96 200.708 123.54 199.648 111.8 200.008V180.768C111.8 179.828 137.96 179.988 137.96 180.768V200.008Z" fill="#FFE8BB"/>
<path d="M137.96 236.868C137.96 236.868 112.26 237.268 111.78 236.868C111.3 236.468 112 218.108 111.78 217.628C111.56 217.148 137.54 216.528 137.96 217.628C138.38 218.728 137.96 236.868 137.96 236.868Z" fill="#FFE8BB"/>
<path d="M54.26 104.408C54.26 110.248 54.26 113.148 54.26 114.768C54.26 114.938 54.3275 115.101 54.4475 115.221C54.5675 115.341 54.7303 115.408 54.9001 115.408C76.2401 115.408 82.3401 115.408 84.1601 115.408C84.8601 115.408 85.12 115.408 85.24 114.308C85.52 111.828 84.9401 104.788 84.7201 93.6481C84.7256 93.4654 84.6937 93.2835 84.6263 93.1135C84.5589 92.9436 84.4575 92.7893 84.3282 92.66C84.1989 92.5307 84.0446 92.4293 83.8746 92.3619C83.7047 92.2945 83.5228 92.2626 83.34 92.2681C79.34 92.3881 75.34 92.2681 71.34 92.2681C55.52 92.0081 53.8 91.8081 53.8 92.8881C53.86 96.7681 54.32 100.508 54.26 104.408ZM83.96 114.128H55.5401V107.688C55.5401 107.688 62.8601 100.888 63.0801 100.648C63.9401 99.7081 64.24 99.3881 64.78 100.008C65.9552 101.349 67.0504 102.758 68.06 104.228C68.5495 105.018 69.1192 105.755 69.7601 106.428C71.0601 107.688 72.04 106.948 72.82 106.428C73.4109 106.013 73.9785 105.566 74.52 105.088C75.2066 104.44 75.9977 103.913 76.8601 103.528C77.6401 103.268 78.08 103.708 78.8601 104.748C79.3001 105.308 79.02 104.968 83.92 110.508C84.02 112.608 84 113.648 83.96 114.128ZM83.42 93.5481C83.42 94.4881 83.8601 107.368 83.9001 108.408L79.9001 103.868C79.1601 102.928 78.12 101.628 76.42 102.228C74.9647 102.949 73.6182 103.872 72.42 104.968C71.26 105.768 71.2 106.108 70.56 105.508C69.6382 104.388 68.777 103.22 67.9801 102.008C65.5001 98.9081 64.6801 96.8881 61.9801 99.7681C61.4001 100.388 61.98 99.7681 55.38 105.928C55.38 98.4681 55.08 98.5881 54.96 93.4081C59.34 93.1481 75 93.7881 83.42 93.5481Z" fill="#313553"/>
<path d="M111.5 72.5481C111.302 72.6697 111.159 72.8633 111.1 73.0881C110.86 74.0281 110.58 91.8081 111.26 92.7481C111.48 93.0481 111.62 93.2281 116.78 93.3681C118.12 93.3681 137.54 93.8681 138.46 92.7681C139.38 91.6681 139.14 73.5881 138.46 72.7681C137.78 71.9481 111.7 72.4481 111.5 72.5481ZM137.5 91.8681C129.14 92.3281 120.76 92.3281 112.4 91.8681C112.1 89.5281 112.08 76.2081 112.4 73.7481C115.46 73.5481 134.68 73.3681 137.5 73.7481C137.837 79.7841 137.817 85.8346 137.44 91.8681H137.5Z" fill="#313553"/>
<path d="M123.64 128.228C136.96 128.228 137.98 128.768 138.46 128.228C139.22 127.248 138.58 108.348 138.46 108.228C138.343 108.055 138.164 107.934 137.96 107.888C137.76 107.888 112.3 107.408 111.38 108.028C110.46 108.648 111 127.048 111 127.268C111.2 129.128 110.74 128.208 123.64 128.228ZM112.34 109.108C115.42 108.968 134.34 108.808 137.38 109.108C137.54 111.648 137.54 124.648 137.38 127.108C136.62 127.108 124.94 126.868 122.74 126.868C117.94 126.868 114.24 127.048 112.32 127.068C112.1 124.548 112.12 111.668 112.34 109.108Z" fill="#313553"/>
<path d="M111.44 143.368C111.18 143.528 111.02 143.748 111.14 144.028C111.26 145.068 110.84 162.368 111.14 163.368C111.38 164.048 111.6 164.108 118.88 163.888C134.56 163.428 137.86 164.808 138.52 163.448C138.52 163.328 139.48 144.688 138.52 143.448C137.56 142.208 111.62 143.268 111.44 143.368ZM137.44 162.728C136.02 162.928 131.44 162.428 126.1 162.428C123.6 162.428 113.94 162.808 112.44 162.668C112.3 160.148 112.54 146.928 112.44 144.488C115.84 144.228 134.84 144.008 137.42 144.488C137.725 150.565 137.712 156.653 137.38 162.728H137.44Z" fill="#313553"/>
<path d="M111.82 200.668C123.82 200.208 137.36 201.508 138.38 200.508C138.7 200.208 138.6 201.588 138.6 180.768C138.6 180.088 138.6 179.488 124 179.488C120.7 179.488 117.7 179.488 115.54 179.628C111.66 179.808 111.16 180.028 111.16 180.768C111.16 201.588 111.16 200.188 111.34 200.468C111.472 200.588 111.642 200.658 111.82 200.668ZM112.44 181.188C120.723 180.608 129.037 180.608 137.32 181.188V199.528C135.16 199.748 123.62 199.268 118.24 199.268C115.7 199.268 113.5 199.268 112.44 199.268V181.188Z" fill="#313553"/>
<path d="M137.16 216.688C134.76 216.348 112.08 216.148 111.28 217.208C111.12 217.408 111.06 217.568 111.16 217.768C111.26 217.968 111.16 221.468 111.16 224.648C111 232.268 111 235.268 111 236.408C111 237.548 111.26 237.428 112.12 237.508C115.74 237.868 130.4 237.628 137.92 237.508C138.003 237.511 138.086 237.497 138.163 237.467C138.241 237.437 138.312 237.392 138.371 237.334C138.431 237.276 138.479 237.207 138.511 237.13C138.543 237.054 138.56 236.971 138.56 236.888C138.56 232.588 138.94 218.528 138.56 217.408C138.4 216.968 137.92 216.808 137.16 216.688ZM137.32 236.228C128.06 236.368 114.74 236.488 112.32 236.228C112.1 233.728 112.54 220.508 112.46 218.028C115.86 217.568 134.9 217.288 137.38 218.028C137.58 219.808 137.46 229.688 137.32 236.228Z" fill="#313553"/>
<path d="M202.28 36.6481C199 36.2081 203.54 36.3881 123.84 36.4081C119.32 36.4081 111.84 36.4081 110.16 43.8481C109.48 46.9681 110.16 51.1881 112.58 53.2081C116.26 56.2081 120.96 56.6281 125.56 56.6281L194.28 56.4881C199.5 56.4881 206 56.6681 209.58 53.1481C210.442 52.2341 211.109 51.155 211.542 49.976C211.975 48.797 212.165 47.5425 212.1 46.2881C212.1 40.7281 208.88 37.5881 202.28 36.6481ZM194.28 55.2081C194.28 55.2081 132.28 55.2081 126.68 55.3281C121.96 55.3281 117.04 55.1881 113.36 52.2081C111.36 50.5481 110.82 46.7881 111.36 44.2081C112.64 38.2081 118.2 37.7681 123.78 37.7681C123.78 37.7681 196.64 37.6281 199.38 37.7681C205.82 38.1081 210.74 39.9281 210.74 46.3681C210.8 54.8881 202.86 55.2681 194.3 55.2681L194.28 55.2081Z" fill="#313553"/>
<path d="M205.32 50.4881L202.26 47.8081C202.92 46.8438 203.191 45.665 203.017 44.5092C202.843 43.3535 202.237 42.3067 201.322 41.5797C200.407 40.8528 199.25 40.4997 198.085 40.5917C196.919 40.6838 195.833 41.214 195.043 42.0756C194.253 42.9371 193.819 44.0661 193.829 45.2348C193.838 46.4036 194.29 47.5253 195.094 48.374C195.897 49.2227 196.993 49.7352 198.159 49.8083C199.326 49.8815 200.477 49.5098 201.38 48.7681C204.8 51.7481 204.56 51.6281 204.88 51.6281C205.011 51.6255 205.138 51.584 205.246 51.5088C205.353 51.4336 205.436 51.3282 205.483 51.2059C205.53 51.0836 205.54 50.95 205.511 50.8222C205.482 50.6943 205.415 50.578 205.32 50.4881ZM195.14 45.2681C195.144 44.7351 195.275 44.2108 195.524 43.7395C195.773 43.2682 196.132 42.8638 196.57 42.5604C197.009 42.2571 197.513 42.0637 198.042 41.9966C198.571 41.9295 199.108 41.9908 199.608 42.1751C200.108 42.3595 200.557 42.6615 200.915 43.0557C201.274 43.4499 201.533 43.9247 201.669 44.4399C201.806 44.9551 201.816 45.4956 201.7 46.0158C201.583 46.5359 201.343 47.0203 201 47.4281C200.56 47.9505 199.97 48.3246 199.31 48.4995C198.65 48.6744 197.952 48.6415 197.312 48.4053C196.671 48.1692 196.119 47.7413 195.73 47.1799C195.342 46.6184 195.135 45.9509 195.14 45.2681Z" fill="#313553"/>
<path d="M146.8 74.5881C163.96 74.5881 173.8 75.8281 199.86 74.5881C199.955 74.6048 200.052 74.6005 200.145 74.5756C200.238 74.5506 200.325 74.5056 200.399 74.4436C200.473 74.3817 200.532 74.3043 200.573 74.217C200.613 74.1296 200.634 74.0344 200.634 73.9381C200.634 73.8417 200.613 73.7465 200.573 73.6592C200.532 73.5718 200.473 73.4945 200.399 73.4325C200.325 73.3706 200.238 73.3256 200.145 73.3006C200.052 73.2756 199.955 73.2714 199.86 73.2881C173.54 74.5081 164.72 73.2881 146.86 73.2881C146.774 73.288 146.689 73.3052 146.61 73.3386C146.531 73.372 146.46 73.421 146.4 73.4825C146.341 73.5441 146.294 73.617 146.263 73.697C146.232 73.777 146.217 73.8624 146.22 73.9481C146.219 74.1079 146.278 74.2622 146.386 74.3807C146.493 74.4991 146.641 74.5731 146.8 74.5881Z" fill="#313553"/>
<path d="M199.9 82.5081C185.9 82.5081 163.9 81.8881 153.36 82.3281C151.2 82.3281 148.98 82.5081 146.8 82.5081C146.63 82.5081 146.467 82.5755 146.347 82.6955C146.227 82.8155 146.16 82.9783 146.16 83.1481C146.157 83.2338 146.172 83.3192 146.203 83.3991C146.234 83.4791 146.281 83.552 146.34 83.6136C146.4 83.6752 146.471 83.7241 146.55 83.7575C146.629 83.7909 146.714 83.8081 146.8 83.8081C155.34 83.8081 151.68 83.2081 173.44 83.5081C173.44 83.5081 193.44 83.8081 199.9 83.8081C200.075 83.8081 200.243 83.7385 200.367 83.6147C200.49 83.491 200.56 83.3231 200.56 83.1481C200.56 83.0623 200.543 82.9774 200.509 82.8984C200.476 82.8194 200.427 82.748 200.366 82.6883C200.304 82.6286 200.231 82.5819 200.151 82.5509C200.071 82.5199 199.986 82.5054 199.9 82.5081Z" fill="#313553"/>
<path d="M146.8 93.0081C153.26 93.0081 151.98 93.6281 163.28 93.1881C165.28 93.0881 167.5 93.0081 169.6 93.0081C169.77 93.0081 169.933 92.9407 170.053 92.8206C170.173 92.7006 170.24 92.5378 170.24 92.3681C170.24 92.1983 170.173 92.0356 170.053 91.9155C169.933 91.7955 169.77 91.7281 169.6 91.7281C167.48 91.7281 165.32 91.7281 163.24 91.8881C151.76 92.3281 153.08 91.7281 146.8 91.7281C146.63 91.7281 146.468 91.7955 146.347 91.9155C146.227 92.0356 146.16 92.1983 146.16 92.3681C146.16 92.5378 146.227 92.7006 146.347 92.8206C146.468 92.9407 146.63 93.0081 146.8 93.0081Z" fill="#313553"/>
<path d="M146.8 217.008C146.63 217.008 146.468 217.076 146.347 217.196C146.227 217.316 146.16 217.478 146.16 217.648C146.16 217.818 146.227 217.981 146.347 218.101C146.468 218.221 146.63 218.288 146.8 218.288C164.38 218.288 173.92 219.528 199.86 218.288C200.013 218.261 200.151 218.181 200.251 218.062C200.351 217.944 200.406 217.793 200.406 217.638C200.406 217.483 200.351 217.333 200.251 217.214C200.151 217.095 200.013 217.015 199.86 216.988C173.92 218.228 164.16 217.008 146.8 217.008Z" fill="#313553"/>
<path d="M199.9 226.208C186.4 226.208 163.9 225.588 153.42 226.028C151.26 226.028 149 226.208 146.8 226.208C146.63 226.208 146.467 226.276 146.347 226.396C146.227 226.516 146.16 226.678 146.16 226.848C146.157 226.934 146.172 227.019 146.203 227.099C146.234 227.179 146.281 227.252 146.34 227.314C146.4 227.375 146.471 227.424 146.55 227.458C146.629 227.491 146.714 227.508 146.8 227.508C155.1 227.508 152.32 226.888 173.44 227.208C173.44 227.208 193.44 227.508 199.9 227.508C200.075 227.508 200.243 227.439 200.367 227.315C200.49 227.191 200.56 227.023 200.56 226.848C200.56 226.762 200.543 226.677 200.509 226.598C200.476 226.52 200.427 226.448 200.366 226.388C200.304 226.329 200.231 226.282 200.151 226.251C200.071 226.22 199.986 226.205 199.9 226.208Z" fill="#313553"/>
<path d="M169.6 235.428C165.16 235.428 160.28 235.808 156.08 235.748C152.98 235.748 149.9 235.428 146.8 235.428C146.716 235.428 146.633 235.445 146.555 235.477C146.477 235.509 146.407 235.556 146.347 235.616C146.288 235.675 146.241 235.746 146.209 235.823C146.177 235.901 146.16 235.984 146.16 236.068C146.16 236.152 146.177 236.235 146.209 236.313C146.241 236.391 146.288 236.461 146.347 236.521C146.407 236.58 146.477 236.627 146.555 236.659C146.633 236.692 146.716 236.708 146.8 236.708C152.96 236.708 151.9 237.328 163.24 236.888C165.24 236.888 167.5 236.708 169.6 236.708C169.77 236.708 169.933 236.641 170.053 236.521C170.173 236.401 170.24 236.238 170.24 236.068C170.24 235.898 170.173 235.736 170.053 235.616C169.933 235.496 169.77 235.428 169.6 235.428Z" fill="#313553"/>
<path d="M199.9 107.888C184.66 107.888 172.48 108.488 155.24 108.108C152.46 108.108 149.64 107.788 146.78 107.888C146.61 107.888 146.447 107.956 146.327 108.076C146.207 108.196 146.14 108.358 146.14 108.528C146.14 108.698 146.207 108.861 146.327 108.981C146.447 109.101 146.61 109.168 146.78 109.168C149.48 109.168 152.34 109.348 155.18 109.408C174.08 109.808 185.66 109.168 199.86 109.168C200.03 109.168 200.193 109.101 200.313 108.981C200.433 108.861 200.5 108.698 200.5 108.528C200.5 108.358 200.433 108.196 200.313 108.076C200.193 107.956 200.03 107.888 199.86 107.888H199.9Z" fill="#313553"/>
<path d="M146.8 118.388C164.42 118.388 175.34 119.648 199.74 117.888C199.908 117.873 200.064 117.794 200.175 117.668C200.287 117.541 200.346 117.377 200.34 117.208C200.335 117.122 200.313 117.038 200.275 116.961C200.236 116.884 200.183 116.815 200.118 116.759C200.052 116.703 199.976 116.661 199.894 116.635C199.812 116.609 199.726 116.6 199.64 116.608C175.64 118.348 164.02 117.088 146.8 117.088C146.714 117.088 146.629 117.105 146.55 117.139C146.471 117.172 146.4 117.221 146.34 117.283C146.281 117.344 146.234 117.417 146.203 117.497C146.172 117.577 146.157 117.662 146.16 117.748C146.16 117.832 146.177 117.915 146.209 117.993C146.241 118.071 146.288 118.141 146.347 118.201C146.407 118.26 146.477 118.307 146.555 118.339C146.633 118.372 146.716 118.388 146.8 118.388Z" fill="#313553"/>
<path d="M146.8 127.588C150.14 127.588 153.66 127.428 156.8 127.468C161.04 127.468 165.3 127.588 169.54 127.588C169.71 127.588 169.873 127.521 169.993 127.401C170.113 127.281 170.18 127.118 170.18 126.948C170.18 126.778 170.113 126.616 169.993 126.496C169.873 126.376 169.71 126.308 169.54 126.308H146.8C146.63 126.308 146.468 126.376 146.347 126.496C146.227 126.616 146.16 126.778 146.16 126.948C146.16 127.118 146.227 127.281 146.347 127.401C146.468 127.521 146.63 127.588 146.8 127.588Z" fill="#313553"/>
<path d="M146.8 144.468C163.8 144.468 174.14 145.708 199.86 144.468C199.955 144.485 200.052 144.481 200.145 144.456C200.238 144.431 200.325 144.386 200.399 144.324C200.473 144.262 200.532 144.184 200.573 144.097C200.613 144.01 200.634 143.914 200.634 143.818C200.634 143.722 200.613 143.627 200.573 143.539C200.532 143.452 200.473 143.374 200.399 143.313C200.325 143.251 200.238 143.206 200.145 143.181C200.052 143.156 199.955 143.151 199.86 143.168C173.86 144.388 164.46 143.168 146.86 143.168C146.69 143.168 146.527 143.236 146.407 143.356C146.287 143.476 146.22 143.638 146.22 143.808C146.22 143.978 146.287 144.141 146.407 144.261C146.527 144.381 146.69 144.448 146.86 144.448L146.8 144.468Z" fill="#313553"/>
<path d="M199.9 152.388C186.2 152.388 163.78 151.768 153.34 152.208C151.2 152.208 148.98 152.388 146.8 152.388C146.714 152.388 146.629 152.405 146.55 152.439C146.471 152.472 146.4 152.521 146.34 152.583C146.281 152.644 146.234 152.717 146.203 152.797C146.172 152.877 146.157 152.962 146.16 153.048C146.16 153.218 146.227 153.381 146.347 153.501C146.467 153.621 146.63 153.688 146.8 153.688C154.98 153.688 151.98 153.088 173.44 153.388C173.44 153.388 193.24 153.688 199.9 153.688C199.986 153.691 200.071 153.676 200.151 153.645C200.231 153.614 200.304 153.568 200.366 153.508C200.427 153.448 200.476 153.377 200.509 153.298C200.543 153.219 200.56 153.134 200.56 153.048C200.56 152.873 200.49 152.705 200.367 152.581C200.243 152.458 200.075 152.388 199.9 152.388Z" fill="#313553"/>
<path d="M151.56 163.068C160.3 163.508 162.62 162.888 169.56 162.888C169.73 162.888 169.893 162.821 170.013 162.701C170.133 162.581 170.2 162.418 170.2 162.248C170.2 162.078 170.133 161.916 170.013 161.796C169.893 161.676 169.73 161.608 169.56 161.608C164.98 161.608 161.08 161.968 156.04 161.928C152.92 161.928 149.92 161.608 146.76 161.608C146.59 161.608 146.427 161.676 146.307 161.796C146.187 161.916 146.12 162.078 146.12 162.248C146.12 162.418 146.187 162.581 146.307 162.701C146.427 162.821 146.59 162.888 146.76 162.888C148.38 162.888 150 162.988 151.56 163.068Z" fill="#313553"/>
<path d="M145.36 180.528C147.141 180.478 148.923 180.518 150.7 180.648C164.18 181.288 187.24 180.528 198.44 180.528C198.593 180.501 198.731 180.421 198.831 180.302C198.931 180.184 198.986 180.033 198.986 179.878C198.986 179.723 198.931 179.573 198.831 179.454C198.731 179.335 198.593 179.255 198.44 179.228C186.44 179.228 163.3 179.948 150.76 179.348C148.98 179.348 147.12 179.168 145.32 179.228C145.168 179.259 145.031 179.343 144.935 179.465C144.838 179.587 144.788 179.74 144.793 179.895C144.798 180.05 144.857 180.199 144.961 180.315C145.065 180.431 145.206 180.506 145.36 180.528Z" fill="#313553"/>
<path d="M145.34 189.728C163.18 189.728 173.68 191.008 198.28 189.248C198.364 189.241 198.446 189.216 198.521 189.177C198.596 189.138 198.662 189.084 198.716 189.019C198.77 188.954 198.81 188.879 198.835 188.798C198.86 188.717 198.868 188.632 198.86 188.548C198.855 188.464 198.833 188.382 198.796 188.306C198.759 188.23 198.708 188.163 198.645 188.107C198.581 188.051 198.508 188.008 198.428 187.981C198.348 187.954 198.264 187.943 198.18 187.948C173.58 189.708 163 188.448 145.34 188.448C145.17 188.448 145.007 188.516 144.887 188.636C144.767 188.756 144.7 188.918 144.7 189.088C144.7 189.258 144.767 189.421 144.887 189.541C145.007 189.661 145.17 189.728 145.34 189.728Z" fill="#313553"/>
<path d="M155.4 198.828C155.4 198.828 164.02 198.948 168.14 198.948C168.31 198.948 168.472 198.881 168.593 198.761C168.713 198.641 168.78 198.478 168.78 198.308C168.783 198.222 168.768 198.137 168.737 198.057C168.706 197.977 168.659 197.904 168.6 197.843C168.54 197.781 168.469 197.732 168.39 197.699C168.311 197.665 168.226 197.648 168.14 197.648C164.02 197.648 155.42 197.528 155.42 197.528C151.96 197.528 148.66 197.648 145.42 197.648C145.334 197.648 145.249 197.665 145.17 197.699C145.091 197.732 145.02 197.781 144.96 197.843C144.901 197.904 144.854 197.977 144.823 198.057C144.792 198.137 144.777 198.222 144.78 198.308C144.78 198.478 144.847 198.641 144.967 198.761C145.087 198.881 145.25 198.948 145.42 198.948C148.68 198.948 152.08 198.768 155.4 198.828Z" fill="#313553"/>
<path d="M99.22 66.8881C98.8 62.6881 97.04 59.6481 94.2 58.5281C88.68 56.3681 81.96 62.4281 82.8 68.3281C84.28 78.5881 100.22 76.9281 99.22 66.8881ZM86.68 61.6081C91.32 57.3681 97.14 59.1481 97.94 67.0281C98.76 75.2881 85.32 76.8681 84.08 68.1481C83.9993 66.9332 84.1909 65.7156 84.6407 64.5842C85.0905 63.4527 85.7872 62.436 86.68 61.6081Z" fill="#313553"/>
<path d="M226.24 97.5282C237.98 97.5282 237.24 97.5281 237.52 97.3281C237.583 97.2703 237.632 97.1988 237.663 97.1191C237.695 97.0393 237.707 96.9535 237.7 96.8681C237.668 95.6916 237.291 94.5504 236.615 93.5867C235.939 92.623 234.995 91.8793 233.9 91.4482C234.533 90.9755 235.001 90.3157 235.237 89.5621C235.474 88.8086 235.467 87.9997 235.218 87.2502C234.969 86.5007 234.49 85.8486 233.85 85.3865C233.21 84.9244 232.44 84.6757 231.65 84.6757C230.86 84.6757 230.09 84.9244 229.45 85.3865C228.809 85.8486 228.331 86.5007 228.082 87.2502C227.833 87.9997 227.826 88.8086 228.063 89.5621C228.299 90.3157 228.767 90.9755 229.4 91.4482C228.302 91.8806 227.355 92.6274 226.679 93.595C226.004 94.5627 225.628 95.7082 225.6 96.8882C225.6 97.0579 225.667 97.2207 225.787 97.3407C225.907 97.4607 226.07 97.5282 226.24 97.5282Z" fill="#313553"/>
<path d="M314.36 52.1481C314.432 52.2316 314.524 52.2952 314.627 52.3327C314.731 52.3703 314.842 52.3805 314.951 52.3624C315.059 52.3443 315.161 52.2985 315.247 52.2294C315.333 52.1604 315.399 52.0704 315.44 51.9681C316.259 50.1202 317.566 48.5301 319.22 47.3681C319.372 47.2872 319.487 47.1497 319.539 46.9852C319.592 46.8207 319.578 46.6423 319.5 46.4881C319.416 46.3441 319.282 46.236 319.123 46.1844C318.965 46.1328 318.793 46.1412 318.64 46.2081C316.922 47.2549 315.535 48.7664 314.64 50.5681L313.28 48.9881C313.168 48.8582 313.01 48.7778 312.839 48.7646C312.669 48.7515 312.5 48.8067 312.37 48.9181C312.24 49.0295 312.16 49.188 312.146 49.3586C312.133 49.5293 312.188 49.6982 312.3 49.8281L314.36 52.1481Z" fill="#313553"/>
<path d="M322.6 107.688C322.96 109.188 325.16 110.008 325.42 110.088C325.5 110.116 325.585 110.127 325.67 110.122C325.754 110.117 325.837 110.095 325.913 110.058C325.989 110.021 326.057 109.969 326.113 109.906C326.169 109.842 326.213 109.768 326.24 109.688C326.268 109.608 326.279 109.523 326.274 109.439C326.269 109.354 326.247 109.271 326.21 109.195C326.173 109.119 326.121 109.051 326.058 108.995C325.994 108.939 325.92 108.896 325.84 108.868C325.26 108.668 324.02 108.028 323.84 107.388C323.66 106.748 323.96 106.268 324.88 105.628C325.617 105.251 326.236 104.678 326.67 103.973C327.104 103.267 327.336 102.456 327.34 101.628C327.313 101.475 327.233 101.337 327.114 101.237C326.996 101.137 326.845 101.083 326.69 101.083C326.535 101.083 326.385 101.137 326.266 101.237C326.147 101.337 326.067 101.475 326.04 101.628C326.22 104.728 321.82 104.428 322.6 107.688Z" fill="#313553"/>
<path d="M325 112.268C324.504 111.951 323.945 111.744 323.362 111.662C322.779 111.579 322.185 111.622 321.62 111.788C321.447 111.704 321.301 111.572 321.2 111.408C321.149 111.341 321.085 111.284 321.012 111.242C320.939 111.2 320.859 111.172 320.775 111.161C320.691 111.15 320.606 111.155 320.525 111.177C320.443 111.199 320.367 111.237 320.3 111.288C320.165 111.391 320.076 111.543 320.05 111.71C320.024 111.878 320.063 112.049 320.16 112.188C320.34 112.428 320.98 113.208 321.72 113.068H321.92C322.9 112.908 323.76 112.828 324.34 113.448C324.425 113.539 324.534 113.604 324.654 113.636C324.774 113.668 324.901 113.665 325.02 113.628C325.255 113.54 325.507 113.513 325.755 113.547C326.003 113.582 326.239 113.679 326.44 113.828C326.975 114.309 327.64 114.621 328.352 114.724C329.064 114.828 329.791 114.718 330.44 114.408C330.515 114.369 330.581 114.315 330.635 114.25C330.689 114.185 330.73 114.11 330.755 114.029C330.78 113.948 330.789 113.863 330.781 113.779C330.774 113.695 330.749 113.613 330.71 113.538C330.671 113.463 330.617 113.397 330.552 113.343C330.487 113.289 330.412 113.248 330.331 113.223C330.25 113.198 330.165 113.189 330.081 113.197C329.997 113.204 329.915 113.229 329.84 113.268C329.401 113.494 328.9 113.572 328.413 113.489C327.926 113.406 327.479 113.167 327.14 112.808C326.837 112.581 326.492 112.416 326.124 112.323C325.757 112.231 325.375 112.212 325 112.268Z" fill="#313553"/>
<path d="M326.6 115.028C323.58 115.468 322.6 114.168 322.6 114.088C322.499 113.97 322.36 113.891 322.207 113.866C322.054 113.84 321.897 113.869 321.763 113.948C321.629 114.027 321.528 114.15 321.476 114.297C321.424 114.443 321.425 114.603 321.48 114.748C321.942 115.353 322.554 115.826 323.256 116.121C323.958 116.416 324.725 116.522 325.48 116.428C325.942 116.424 326.404 116.384 326.86 116.308C327.03 116.274 327.179 116.173 327.274 116.029C327.37 115.884 327.404 115.708 327.37 115.538C327.335 115.368 327.235 115.219 327.091 115.124C326.946 115.028 326.77 114.994 326.6 115.028Z" fill="#313553"/>
<path d="M330.26 102.728C330.587 102.399 331.018 102.194 331.48 102.148C331.398 102.267 331.345 102.403 331.326 102.545C331.306 102.688 331.32 102.833 331.367 102.969C331.414 103.105 331.492 103.229 331.595 103.329C331.698 103.43 331.823 103.505 331.96 103.548C332.5 103.548 332.92 102.948 332.74 102.328C333.34 102.583 333.893 102.935 334.38 103.368C334.44 103.43 334.511 103.479 334.59 103.512C334.669 103.546 334.754 103.563 334.84 103.563C334.926 103.563 335.011 103.546 335.09 103.512C335.169 103.479 335.24 103.43 335.3 103.368C335.414 103.246 335.477 103.085 335.477 102.918C335.477 102.751 335.414 102.59 335.3 102.468C331.76 99.3681 329.3 101.868 329.3 101.908C329.244 102.038 329.23 102.182 329.262 102.32C329.294 102.458 329.369 102.582 329.476 102.673C329.584 102.765 329.718 102.82 329.859 102.83C330 102.84 330.141 102.804 330.26 102.728Z" fill="#313553"/>
<path d="M324.12 101.988C324.163 102.061 324.22 102.124 324.288 102.174C324.357 102.224 324.434 102.259 324.517 102.278C324.599 102.297 324.685 102.298 324.768 102.283C324.851 102.268 324.93 102.235 325 102.188C325.073 102.143 325.137 102.084 325.187 102.014C325.237 101.944 325.273 101.865 325.291 101.781C325.31 101.697 325.312 101.61 325.296 101.525C325.28 101.44 325.248 101.36 325.2 101.288C324.726 100.589 324.016 100.085 323.2 99.8681C322.708 99.7784 322.203 99.7888 321.715 99.8987C321.227 100.009 320.766 100.216 320.36 100.508C320.216 100.602 320.114 100.749 320.077 100.917C320.039 101.086 320.069 101.262 320.16 101.408C320.254 101.552 320.401 101.654 320.569 101.691C320.737 101.729 320.913 101.699 321.06 101.608C321.371 101.397 321.716 101.241 322.08 101.148C322.009 101.258 321.966 101.384 321.954 101.514C321.942 101.644 321.961 101.776 322.01 101.897C322.059 102.019 322.136 102.126 322.235 102.212C322.334 102.297 322.453 102.358 322.58 102.388C322.714 102.393 322.848 102.365 322.968 102.306C323.089 102.247 323.194 102.16 323.273 102.051C323.352 101.942 323.403 101.816 323.421 101.683C323.44 101.55 323.426 101.414 323.38 101.288C323.671 101.469 323.923 101.707 324.12 101.988Z" fill="#313553"/>
<path d="M331.22 99.5281C332.44 98.6681 334.68 100.408 335.44 101.148C335.566 101.262 335.73 101.326 335.9 101.328C336.029 101.331 336.155 101.295 336.264 101.225C336.372 101.155 336.456 101.054 336.506 100.935C336.555 100.816 336.568 100.685 336.542 100.559C336.516 100.433 336.453 100.318 336.36 100.228C336.2 100.088 332.84 96.8081 330.48 98.4681C330.41 98.5167 330.351 98.5785 330.305 98.65C330.26 98.7216 330.228 98.8014 330.214 98.885C330.199 98.9685 330.2 99.0542 330.219 99.1371C330.237 99.22 330.271 99.2985 330.32 99.3681C330.369 99.4377 330.43 99.497 330.502 99.5428C330.573 99.5885 330.653 99.6196 330.737 99.6345C330.82 99.6494 330.906 99.6476 330.989 99.6294C331.072 99.6111 331.15 99.5767 331.22 99.5281Z" fill="#313553"/>
<path d="M319.92 98.6681C320.007 98.8137 320.148 98.9199 320.312 98.9646C320.476 99.0093 320.65 98.9891 320.8 98.9081C320.8 98.9081 323.38 97.5481 324.46 98.7481C324.52 98.8098 324.591 98.8589 324.67 98.8924C324.749 98.9259 324.834 98.9431 324.92 98.9431C325.006 98.9431 325.091 98.9259 325.17 98.8924C325.249 98.8589 325.32 98.8098 325.38 98.7481C325.5 98.6249 325.567 98.4599 325.567 98.2881C325.567 98.1163 325.5 97.9513 325.38 97.8281C323.62 95.8281 320.28 97.6481 320.14 97.7281C320.061 97.7731 319.993 97.8339 319.939 97.9065C319.885 97.9791 319.846 98.0621 319.825 98.1503C319.805 98.2385 319.803 98.3299 319.819 98.419C319.835 98.5081 319.869 98.5929 319.92 98.6681Z" fill="#313553"/>
<path d="M341.48 109.048C341.603 109.168 341.768 109.235 341.94 109.235C342.112 109.235 342.277 109.168 342.4 109.048C343.3 107.968 343.82 106.628 342.74 105.788C343.04 105.188 343.56 104.348 344.18 104.168C344.349 104.122 344.526 104.122 344.695 104.167C344.864 104.213 345.018 104.303 345.14 104.428C345.207 104.48 345.283 104.517 345.365 104.539C345.446 104.561 345.531 104.567 345.615 104.555C345.698 104.544 345.779 104.517 345.852 104.474C345.925 104.432 345.989 104.375 346.04 104.308C346.093 104.239 346.133 104.161 346.155 104.076C346.177 103.992 346.181 103.904 346.168 103.818C346.155 103.732 346.124 103.649 346.078 103.575C346.032 103.501 345.971 103.438 345.9 103.388C343.9 101.928 342.1 103.588 341.3 105.848C341.269 105.933 341.256 106.024 341.262 106.114C341.267 106.205 341.291 106.293 341.333 106.374C341.374 106.455 341.431 106.526 341.501 106.583C341.572 106.641 341.653 106.683 341.74 106.708C341.74 106.708 341.98 106.708 342.04 106.928C342.1 107.148 342.04 107.548 341.4 108.208C341.317 108.337 341.279 108.49 341.294 108.642C341.308 108.795 341.374 108.938 341.48 109.048Z" fill="#313553"/>
<path d="M381.62 180.348C380.734 175.758 379.429 171.259 377.72 166.908C379.48 165.248 379.62 164.148 379.62 163.948C379.631 163.882 379.631 163.814 379.62 163.748C379.4 162.948 374.32 143.968 366.42 135.748C360.9 130.028 345.98 125.308 343.34 124.508C342.904 122.291 342.629 120.045 342.52 117.788C343.082 117.905 343.667 117.827 344.18 117.568C345.132 118.085 346.203 118.345 347.286 118.324C348.369 118.303 349.428 118.001 350.36 117.448C351.319 117.363 352.239 117.026 353.025 116.471C353.812 115.916 354.438 115.163 354.84 114.288C355.964 113.977 356.946 113.288 357.62 112.337C358.294 111.386 358.619 110.231 358.54 109.068C359.252 108.573 359.842 107.924 360.268 107.169C360.694 106.414 360.944 105.573 361 104.708C361.918 103.893 362.592 102.838 362.945 101.662C363.298 100.486 363.317 99.2345 363 98.0481C363.453 97.1413 363.699 96.1451 363.719 95.1316C363.74 94.1181 363.535 93.1127 363.12 92.1881C363.338 91.2735 363.371 90.3245 363.216 89.397C363.062 88.4696 362.723 87.5825 362.22 86.7881C362.501 85.8592 362.501 84.868 362.219 83.9391C361.938 83.0103 361.389 82.1854 360.64 81.5681C360.66 80.745 360.465 79.9308 360.076 79.2052C359.687 78.4795 359.117 77.8672 358.42 77.4281C358.241 76.506 357.818 75.6487 357.196 74.9453C356.573 74.2419 355.773 73.718 354.88 73.4281C354.558 72.4612 353.967 71.6058 353.178 70.9614C352.388 70.317 351.432 69.9101 350.42 69.7881C349.86 69.0483 349.112 68.4724 348.254 68.1206C347.395 67.7687 346.458 67.6539 345.54 67.7881C344.889 67.1404 344.089 66.6616 343.211 66.3932C342.333 66.1249 341.402 66.075 340.5 66.2481C339.684 65.6199 338.708 65.2326 337.683 65.1301C336.658 65.0276 335.625 65.214 334.7 65.6681C333.779 65.2122 332.757 65.0004 331.731 65.0529C330.705 65.1054 329.709 65.4206 328.84 65.9681C327.984 65.6821 327.063 65.6509 326.19 65.8781C325.317 66.1053 324.528 66.5813 323.92 67.2481H323.6C323.6 57.1281 323.74 56.8281 323.14 55.2481C324.113 53.9585 324.755 52.45 325.009 50.8548C325.264 49.2596 325.123 47.6262 324.6 46.0979C324.077 44.5695 323.187 43.1928 322.008 42.0882C320.829 40.9837 319.398 40.185 317.839 39.7622C316.28 39.3394 314.641 39.3053 313.065 39.663C311.49 40.0207 310.026 40.7591 308.803 41.8138C307.579 42.8684 306.633 44.207 306.046 45.7123C305.46 47.2176 305.252 48.8437 305.44 50.4481H302.26C301.162 50.4481 300.109 50.8843 299.333 51.6607C298.556 52.4371 298.12 53.4901 298.12 54.5881C298.07 55.3133 297.747 55.9926 297.216 56.4897C296.686 56.9867 295.987 57.2648 295.26 57.2681H277.26V48.2081C283.12 45.1881 285.74 40.2081 285.26 34.9081C284.56 26.0281 278.4 19.5481 268.96 19.7281C265.075 19.8059 261.365 21.361 258.586 24.077C255.807 26.793 254.167 30.4658 254 34.3481H252.62C251.372 34.3534 250.176 34.853 249.295 35.7376C248.415 36.6222 247.92 37.8197 247.92 39.0681C247.915 39.977 247.55 40.8468 246.905 41.4876C246.261 42.1284 245.389 42.4881 244.48 42.4881H223.32C223.2 35.1481 223.12 27.6481 223.48 20.4881C223.8 13.9881 223.8 7.28811 220.06 3.34811C218.915 2.2413 217.552 1.38652 216.057 0.838816C214.562 0.291112 212.969 0.0626364 211.38 0.168108H191.84C190.09 0.168108 188.411 0.863464 187.173 2.1012C185.935 3.33894 185.24 5.01768 185.24 6.76811C185.237 7.472 185.096 8.16847 184.824 8.81778C184.553 9.46708 184.156 10.0565 183.656 10.5524C183.156 11.0482 182.564 11.4408 181.913 11.7078C181.261 11.9747 180.564 12.1107 179.86 12.1081C169.311 12.7986 158.729 12.7986 148.18 12.1081C146.769 12.1081 145.416 11.5476 144.418 10.5499C143.42 9.55222 142.86 8.19906 142.86 6.78811C142.86 5.91461 142.687 5.04979 142.35 4.24378C142.013 3.43777 141.52 2.70661 140.899 2.09269C140.277 1.47877 139.54 0.994292 138.73 0.667355C137.92 0.340417 137.053 0.177521 136.18 0.188109C127.8 0.728109 122.78 0.628109 111.52 0.628109C104.96 0.628109 100.4 5.42811 100.4 12.2881C100.4 18.1281 100.02 38.4881 99.98 42.9081C94.34 42.7681 88.82 43.2081 83.44 43.0281C77.44 42.8281 77 41.6481 76.08 38.8481C75.7651 37.3696 74.9447 36.0471 73.76 35.1081C71.4267 33.8643 68.7516 33.415 66.14 33.8281C65.7 33.8281 54.48 34.1681 54.48 34.1681C51.54 34.2681 48.04 34.8281 46.92 38.5681C46.4123 41.4399 46.318 44.3696 46.64 47.2681V56.9281C39.92 56.9281 39.08 57.2681 29.5 57.2281C28.7834 57.2388 28.0692 57.1444 27.38 56.9481C25.38 56.1281 26.92 52.4481 24.48 50.7081C23.6146 50.1885 22.604 49.9639 21.6 50.0681C15.36 50.0681 10.12 49.8281 5.73999 50.8681C4.18814 51.1832 2.79742 52.0362 1.81312 53.2766C0.82882 54.5171 0.314186 56.0653 0.359992 57.6481V195.368C0.359985 197.322 1.13477 199.196 2.51447 200.579C3.89416 201.963 5.76616 202.743 7.71999 202.748H46.64C46.6134 203.877 46.8124 204.999 47.2253 206.05C47.6383 207.101 48.2569 208.058 49.0449 208.867C49.8329 209.675 50.7744 210.318 51.8141 210.758C52.8539 211.198 53.971 211.426 55.1 211.428H100.36C100.36 211.828 100.36 242.608 100.36 246.868C100.347 248.452 100.647 250.024 101.245 251.491C101.842 252.959 102.724 254.293 103.839 255.418C104.955 256.543 106.282 257.436 107.745 258.045C109.207 258.654 110.776 258.968 112.36 258.968C135.7 259.528 163.9 258.508 211.28 258.968C214.47 258.937 217.519 257.648 219.766 255.383C222.012 253.118 223.275 250.058 223.28 246.868C223.28 234.868 223.12 222.868 222.94 211.428H268.64C269.769 211.426 270.886 211.198 271.926 210.758C272.966 210.318 273.907 209.675 274.695 208.867C275.483 208.058 276.102 207.101 276.515 206.05C276.928 204.999 277.127 203.877 277.1 202.748H305.72C305.72 203.968 305.72 204.128 305.72 204.328C305.952 204.803 306.295 205.214 306.72 205.528C304.46 212.888 296.72 239.668 294.72 245.648C291.88 254.988 290.1 264.668 287.56 274.108C282.72 292.268 281.16 300.108 279.18 307.408C277.75 311.962 276.811 316.655 276.38 321.408C276.38 322.348 277.52 323.288 278.38 323.848L277.22 331.208C274.88 330.528 273.22 333.908 272.7 336.488C272.427 337.844 271.824 339.111 270.945 340.178C270.066 341.246 268.938 342.08 267.66 342.608C264.64 343.268 261.28 343.908 258.22 344.488C256.666 344.669 255.176 345.212 253.87 346.073C252.564 346.935 251.478 348.091 250.7 349.448C250.117 350.634 249.815 351.937 249.815 353.258C249.815 354.579 250.117 355.882 250.7 357.068H194.5C194.325 357.068 194.157 357.138 194.033 357.261C193.91 357.385 193.84 357.553 193.84 357.728C193.84 357.814 193.857 357.899 193.891 357.978C193.924 358.057 193.973 358.128 194.034 358.188C194.096 358.248 194.169 358.294 194.249 358.325C194.329 358.356 194.414 358.371 194.5 358.368H362.4C362.57 358.368 362.733 358.301 362.853 358.181C362.973 358.061 363.04 357.898 363.04 357.728C363.04 357.556 362.973 357.392 362.854 357.268C362.734 357.145 362.572 357.073 362.4 357.068H351.38C351.72 351.828 350.06 345.948 345.38 343.328L346.36 332.268C348.98 331.568 351.68 330.268 351.16 327.588C349.74 320.408 351.66 311.928 352.3 304.588C354.94 273.508 355.68 267.408 356.96 243.468C357.52 233.468 359.5 222.548 358.78 212.628C361.74 208.628 372.78 196.328 379.4 186.908C380.831 185.02 381.61 182.717 381.62 180.348ZM365.48 136.708C372.78 144.268 377.82 162.148 378.32 163.928C377.3 167.488 364.52 173.688 357.62 173.308L351.62 159.728C351.55 159.57 351.42 159.446 351.259 159.382C351.099 159.319 350.919 159.321 350.76 159.388C350.682 159.423 350.611 159.472 350.552 159.535C350.494 159.597 350.448 159.67 350.418 159.751C350.389 159.831 350.375 159.916 350.379 160.002C350.383 160.087 350.403 160.171 350.44 160.248L356.64 174.248C356.678 174.347 356.743 174.434 356.828 174.498C356.913 174.562 357.014 174.6 357.12 174.608C358.216 174.738 359.324 174.738 360.42 174.608L363.32 180.608C357.32 187.128 356.22 197.368 351.62 207.128C314.08 212.028 307.86 205.008 307.24 204.128C307.44 187.808 311.48 155.208 312.66 152.408C312.693 152.331 312.71 152.247 312.711 152.163C312.712 152.079 312.696 151.996 312.664 151.918C312.633 151.84 312.586 151.769 312.527 151.709C312.468 151.649 312.398 151.601 312.32 151.568C312.243 151.535 312.159 151.518 312.075 151.517C311.991 151.516 311.908 151.532 311.829 151.564C311.751 151.595 311.68 151.642 311.62 151.701C311.56 151.76 311.513 151.831 311.48 151.908C310.208 157.652 309.3 163.47 308.76 169.328C299.2 169.628 293.96 161.568 293.12 160.148C293.7 157.928 298 141.728 301.7 135.808C305.1 130.328 317.9 127.628 320.84 127.068C321.4 129.368 323.84 136.828 332.48 135.928C335.151 135.769 337.691 134.722 339.699 132.954C341.706 131.186 343.065 128.797 343.56 126.168C347.2 127.148 360.56 131.608 365.48 136.708ZM297 182.188C292.6 183.708 280.16 172.488 274.46 161.848C268.76 151.208 265.62 149.848 265.5 149.848C265.365 149.798 265.215 149.798 265.08 149.848C264.093 150.09 263.072 150.164 262.06 150.068L264.26 143.348C264.4 144.267 264.683 145.158 265.1 145.988C265.153 146.097 265.235 146.188 265.338 146.252C265.441 146.316 265.559 146.349 265.68 146.348C265.79 146.345 265.897 146.315 265.992 146.26C266.087 146.206 266.167 146.128 266.224 146.035C266.282 145.942 266.315 145.835 266.321 145.726C266.328 145.617 266.307 145.507 266.26 145.408C265.658 144.229 265.382 142.91 265.46 141.588C266.26 141.308 265.92 139.908 264.66 140.368C263.54 140.368 261.52 139.888 261.26 138.808C262.619 138.948 263.992 138.756 265.26 138.248C268.54 137.148 269.38 137.608 270.32 142.248C271.32 147.228 270.32 146.908 270.84 147.488C274.84 151.928 288.84 162.928 293.82 166.788C293.959 166.873 294.124 166.903 294.284 166.873C294.444 166.843 294.587 166.755 294.686 166.627C294.785 166.498 294.833 166.337 294.821 166.175C294.809 166.013 294.737 165.861 294.62 165.748L294.3 165.508L295.04 164.488C296.753 166.404 298.857 167.931 301.21 168.966C303.563 170.001 306.11 170.52 308.68 170.488V170.908C308.26 171.088 301.88 180.488 297 182.188ZM222.58 153.428C222.58 149.868 222.58 146.308 222.58 142.788H254C254.281 143.613 254.701 144.384 255.24 145.068C251.52 153.608 251.74 153.068 251.66 153.428H222.58ZM222.58 163.808H246.34C247.751 163.808 249.104 164.369 250.102 165.366C251.099 166.364 251.66 167.717 251.66 169.128C251.66 170.539 251.099 171.892 250.102 172.89C249.104 173.888 247.751 174.448 246.34 174.448C222.98 174.448 222.86 174.448 222.66 174.448C222.66 170.888 222.64 167.268 222.62 163.808H222.58ZM223.12 78.0481C225.577 76.3807 228.441 75.4142 231.406 75.2524C234.37 75.0906 237.323 75.7396 239.947 77.1297C242.57 78.5198 244.765 80.5984 246.296 83.1423C247.827 85.6861 248.636 88.5991 248.636 91.5681C248.636 94.5372 247.827 97.4501 246.296 99.994C244.765 102.538 242.57 104.616 239.947 106.007C237.323 107.397 234.37 108.046 231.406 107.884C228.441 107.722 225.577 106.755 223.12 105.088C222.965 105.03 222.795 105.03 222.64 105.088C222.86 95.8481 223.16 78.0481 223.16 78.0481H223.12ZM277.12 76.8681C278.919 75.1383 281.254 74.0731 283.74 73.8481L286.02 74.5681C284.93 74.9956 283.917 75.5967 283.02 76.3481C271.58 85.6481 265.34 112.488 269.52 122.608L266.64 120.948C265.9 119.668 260.08 108.948 267.14 91.9081C272.14 80.1281 276.84 77.3681 277.18 76.8681H277.12ZM271.84 146.868C271.955 145.228 271.806 143.581 271.4 141.988C270.64 138.208 269.66 135.728 265.84 136.668L271 124.928C271.698 125.472 272.52 125.834 273.392 125.984C274.264 126.135 275.16 126.067 276 125.788V150.708C274.32 149.268 272.88 147.888 271.9 146.848L271.84 146.868ZM288.1 75.4681C293.8 77.5881 290.7 101.968 281.56 115.108C276.46 122.468 273.56 123.368 272.32 123.248C271.98 123.214 271.654 123.093 271.374 122.897C271.094 122.701 270.869 122.436 270.72 122.128C269.632 118.467 269.271 114.628 269.66 110.828C271 93.4481 281 75.7881 288.16 75.4481L288.1 75.4681ZM277 124.028C275.722 124.702 274.241 124.88 272.84 124.528C275.48 124.308 278.84 121.388 282.62 115.828C291.52 103.028 294.26 82.4281 290.76 76.2681C294.18 78.8281 295.9 87.6081 291.72 101.128C286.5 118.168 279.72 122.828 277 124.028ZM263 137.208C263.013 137.235 263.019 137.265 263.019 137.295C263.018 137.325 263.011 137.355 262.998 137.382C262.984 137.409 262.965 137.432 262.941 137.451C262.917 137.469 262.889 137.482 262.86 137.488C261.9 137.628 261.58 137.488 261 137.488C260.86 137.288 258.18 135.028 258.7 133.748C258.86 133.328 259.52 133.308 259.78 133.308C261.14 133.388 262.52 135.908 263.12 137.268L263 137.208ZM253.66 141.508H222.56V138.268H254.26C254.161 138.573 254.124 138.895 254.152 139.214C254.179 139.534 254.27 139.844 254.42 140.128C254.033 140.486 253.803 140.982 253.78 141.508H253.66ZM259.52 143.508C258.42 144.268 255.26 140.048 255.32 139.108C255.319 138.951 255.363 138.798 255.449 138.666C255.534 138.534 255.656 138.431 255.8 138.368C256.658 140.159 258.058 141.635 259.8 142.588C259.808 142.876 259.753 143.163 259.64 143.428L259.52 143.508ZM254.98 141.508C255.826 142.948 257.088 144.098 258.6 144.808C258.76 145.188 258.76 145.428 258.6 145.508C258.394 145.62 258.164 145.679 257.93 145.679C257.696 145.679 257.466 145.62 257.26 145.508C256.589 145.052 256.041 144.437 255.665 143.718C255.288 143 255.094 142.199 255.1 141.388L254.98 141.508ZM260.98 141.508C260.34 141.648 257.42 139.508 256.68 136.948C256.36 135.928 256.54 135.308 257.62 135.208C258.156 136.41 258.964 137.471 259.98 138.308C259.5 139.348 260.54 140.488 261.58 141.028C261.437 141.231 261.234 141.385 261 141.468L260.98 141.508ZM258.44 132.348C258.141 132.494 257.887 132.718 257.704 132.996C257.521 133.274 257.416 133.596 257.4 133.928C257.041 133.945 256.692 134.047 256.381 134.225C256.069 134.404 255.805 134.654 255.61 134.955C255.414 135.256 255.293 135.599 255.257 135.956C255.22 136.313 255.269 136.674 255.4 137.008H222.58C222.58 133.448 222.58 129.908 222.58 126.408H257.48C257.758 126.428 258.017 126.553 258.207 126.757C258.396 126.961 258.501 127.23 258.5 127.508L258.44 132.348ZM325.26 95.8881C327.191 96.6305 329.329 96.6305 331.26 95.8881C332.174 96.1607 333.142 96.1954 334.073 95.9889C335.004 95.7823 335.867 95.3415 336.58 94.7081C336.745 96.5858 337.275 98.4132 338.14 100.088C337.8 101.148 336.98 104.088 337.74 105.408C337.855 105.602 338.009 105.769 338.193 105.899C338.377 106.028 338.586 106.118 338.807 106.161C339.028 106.205 339.256 106.201 339.475 106.15C339.694 106.1 339.9 106.004 340.08 105.868C340.938 105.087 341.503 104.035 341.68 102.888C343.18 102.228 345.14 101.728 345.88 102.748C346.231 103.362 346.404 104.061 346.379 104.768C346.355 105.475 346.133 106.16 345.74 106.748C344.02 108.368 344.2 109.388 342.64 110.888C342.522 111.039 342.37 111.16 342.196 111.24C342.022 111.32 341.831 111.357 341.64 111.348C341.126 111.255 340.664 110.978 340.34 110.568C340.217 110.448 340.052 110.381 339.88 110.381C339.708 110.381 339.543 110.448 339.42 110.568C339.302 110.688 339.235 110.85 339.235 111.018C339.235 111.187 339.302 111.348 339.42 111.468C339.829 111.976 340.368 112.363 340.98 112.588C340.975 116.986 341.404 121.374 342.26 125.688C341.828 128.061 340.604 130.218 338.787 131.806C336.971 133.393 334.67 134.318 332.26 134.428C329.898 134.728 327.512 134.095 325.608 132.665C323.703 131.235 322.431 129.12 322.06 126.768C324.06 126.768 324.78 124.968 324.76 122.988C329.36 123.388 335.28 120.048 338.76 117.208C338.822 117.148 338.871 117.077 338.904 116.998C338.938 116.919 338.955 116.834 338.955 116.748C338.955 116.662 338.938 116.577 338.904 116.498C338.871 116.419 338.822 116.348 338.76 116.288C338.638 116.174 338.477 116.111 338.31 116.111C338.143 116.111 337.982 116.174 337.86 116.288C337.86 116.288 329.86 122.788 324.1 121.668C323.008 121.455 321.997 120.943 321.18 120.188C320.808 119.685 320.58 119.091 320.52 118.468C320.391 117.787 320.204 117.117 319.96 116.468C317.04 109.628 318.18 106.608 318.94 104.588C319.86 102.168 318.94 104.368 319.8 95.5481C320.643 96.0079 321.578 96.2734 322.536 96.3253C323.495 96.3772 324.453 96.2142 325.34 95.8481L325.26 95.8881ZM315.26 40.6281C316.962 40.6281 318.625 41.133 320.04 42.0789C321.455 43.0247 322.557 44.3691 323.207 45.9417C323.858 47.5143 324.027 49.2445 323.693 50.9133C323.36 52.582 322.539 54.1144 321.334 55.3163C320.129 56.5182 318.595 57.3357 316.925 57.6653C315.256 57.9949 313.526 57.8217 311.955 57.1677C310.384 56.5137 309.042 55.4083 308.1 53.9915C307.157 52.5746 306.656 50.9099 306.66 49.2081C306.655 48.078 306.873 46.958 307.302 45.9124C307.73 44.8668 308.362 43.9162 309.159 43.1153C309.956 42.3143 310.904 41.6787 311.947 41.245C312.991 40.8113 314.11 40.5881 315.24 40.5881L315.26 40.6281ZM295.26 58.6281C296.349 58.6124 297.389 58.1699 298.156 57.3958C298.923 56.6217 299.355 55.5776 299.36 54.4881C299.36 53.7296 299.661 53.0021 300.198 52.4658C300.734 51.9294 301.461 51.6281 302.22 51.6281H305.64C306.068 53.3044 306.928 54.839 308.136 56.0784C309.343 57.3177 310.854 58.2183 312.519 58.6901C314.183 59.1619 315.942 59.1884 317.62 58.7669C319.298 58.3453 320.836 57.4906 322.08 56.2881C322.32 57.2681 322.26 56.7681 322.26 67.2481C320.84 67.4205 319.542 68.1375 318.64 69.2481C317.815 69.2965 317.028 69.6111 316.397 70.1448C315.766 70.6785 315.325 71.4025 315.14 72.2081C314.107 72.4297 313.193 73.0272 312.576 73.8846C311.959 74.7421 311.682 75.7982 311.8 76.8481C310.854 77.2246 310.063 77.9092 309.555 78.7913C309.047 79.6733 308.851 80.7011 309 81.7081C308.267 82.5005 307.76 83.4761 307.535 84.5321C307.31 85.5881 307.374 86.6854 307.72 87.7081C307.205 88.5584 306.932 89.5338 306.932 90.5281C306.932 91.5225 307.205 92.4978 307.72 93.3481C307.312 94.19 307.202 95.1457 307.409 96.0581C307.617 96.9705 308.128 97.7851 308.86 98.3681C308.609 99.443 308.761 100.573 309.288 101.543C309.816 102.513 310.681 103.255 311.72 103.628C312.124 104.692 312.85 105.603 313.796 106.234C314.743 106.865 315.863 107.185 317 107.148C316.691 110.537 317.335 113.946 318.86 116.988C319.48 118.428 319.36 120.088 320.4 120.988C321.269 121.814 322.337 122.399 323.5 122.688C323.66 123.58 323.482 124.5 323 125.268C322.848 125.433 322.642 125.539 322.42 125.568C315.72 126.648 304.26 129.248 300.66 135.028C296.66 141.528 292.06 159.228 291.86 159.988C291.801 160.136 291.801 160.3 291.86 160.448C292.496 161.552 293.24 162.59 294.08 163.548L293.2 164.768C290.2 162.448 282.86 156.768 277.32 151.908V125.268C285.32 122.008 290.52 109.588 293.04 101.428C297.52 86.9481 295.46 77.7081 291.42 74.9881C290.778 74.5478 290.048 74.2542 289.28 74.1281L284.1 72.5081C281.623 72.5419 279.234 73.4323 277.34 75.0281V58.6081L295.26 58.6281ZM259.16 25.2681C266.8 17.2681 282.6 20.2481 283.96 34.9881C284.13 36.7579 283.886 38.5429 283.248 40.2022C282.609 41.8614 281.593 43.3493 280.28 44.5481C277.236 47.2847 273.312 48.8388 269.22 48.9281C266.486 48.9138 263.816 48.0992 261.539 46.5848C259.263 45.0704 257.479 42.9226 256.409 40.4063C255.34 37.8901 255.03 35.1157 255.519 32.4255C256.007 29.7353 257.273 27.2471 259.16 25.2681ZM244.46 43.7481C245.08 43.7481 245.694 43.626 246.266 43.3888C246.839 43.1516 247.359 42.8039 247.798 42.3657C248.236 41.9274 248.583 41.407 248.821 40.8344C249.058 40.2617 249.18 39.6479 249.18 39.0281C249.185 38.1208 249.547 37.2519 250.186 36.6084C250.826 35.965 251.693 35.5986 252.6 35.5881H253.98C254.096 38.1251 254.839 40.594 256.14 42.7748C257.442 44.9555 259.263 46.7805 261.441 48.0872C263.618 49.3938 266.085 50.1416 268.622 50.2639C271.159 50.3862 273.687 49.8792 275.98 48.7881V76.1481C272.92 78.7881 269.34 83.4081 265.98 91.4081C258.82 108.548 264.32 119.408 265.46 121.408L261 132.368C260.629 132.153 260.209 132.036 259.78 132.028V127.468C259.78 126.845 259.538 126.247 259.106 125.799C258.673 125.351 258.083 125.089 257.46 125.068H222.6C222.6 118.768 222.6 112.468 222.74 106.328C225.382 108.055 228.439 109.042 231.592 109.185C234.745 109.329 237.878 108.623 240.666 107.143C243.454 105.663 245.793 103.461 247.44 100.769C249.087 98.0765 249.982 94.9915 250.031 91.8355C250.079 88.6796 249.28 85.5684 247.717 82.8265C246.154 80.0845 243.883 77.8122 241.143 76.2466C238.402 74.681 235.292 73.8793 232.136 73.9253C228.98 73.9713 225.894 74.8633 223.2 76.5081C223.52 59.9881 223.66 62.2681 223.34 43.7881L244.46 43.7481ZM56.06 180.348C55.9589 180.366 55.8551 180.363 55.7553 180.339C55.6554 180.315 55.5617 180.27 55.48 180.208C55.34 179.868 55.48 171.108 55.48 170.908C55.48 170.708 73.9 149.488 73.98 149.268L74.24 148.948L90.24 165.868C92.76 168.868 93.64 168.808 96.24 165.728C96.78 165.068 96.24 165.728 100.62 160.968C100.62 167.508 100.62 174.028 100.62 180.468C74.88 180.548 63.9 180.308 56.06 180.388V180.348ZM55.6 146.688C55.3829 141.195 55.4563 135.694 55.82 130.208C68.32 130.548 77.5 130.208 100.64 130.208C100.64 136.608 100.5 155.928 100.48 159.168C100.48 159.168 95.3 164.748 95.08 165.008C94 166.328 93.3 167.008 93.08 166.888C92.4 166.688 91.26 165.188 90.74 164.628C89.92 163.708 89.28 162.928 88.48 162.088C73.88 146.828 75.06 148.088 74.86 147.848C73.94 147.308 73.26 148.228 72.98 148.628C72.7 149.028 67.86 154.628 55.52 168.948C55.7 155.448 55.82 155.968 55.6 146.688ZM93.14 93.8681C94.7 93.9681 98.96 93.8681 100.36 93.8681C100.36 95.7681 100.36 99.6881 100.36 99.7681C100.36 99.8481 99.78 100.268 93.38 106.188C93.32 102.048 93.22 96.1481 93.14 93.8681ZM100.4 101.568C100.4 105.768 100.4 109.955 100.4 114.128H93.68C93.68 113.128 93.52 110.728 93.46 107.968C93.66 107.848 94.02 107.468 100.4 101.568ZM19 83.2681C25.9 83.8681 46.48 82.8481 46.68 82.8281V101.128L43.26 104.668C42.28 105.708 42.4 105.628 41.4 104.668C39.2305 102.787 37.2234 100.726 35.4 98.5081C32.56 95.2481 32.68 95.4881 32.06 94.7681C30.36 92.7681 28.9 94.6481 27.4 96.7681C26.66 97.8281 27.72 96.5281 19.28 106.368C19.6494 98.6694 19.5559 90.9556 19 83.2681ZM19.2 108.668C28.86 97.4081 27.74 98.7881 28.5 97.6881C29.66 96.0481 30.4 94.9481 31.12 95.6881C31.84 96.4281 31.62 96.1681 34.46 99.4281C36.4291 101.828 38.6187 104.037 41 106.028C42.54 107.408 43.4 106.508 44.3 105.548L46.74 102.948V114.128C42.16 114.128 22.12 114.328 18.84 114.248C19 112.368 19 110.488 19.16 108.588L19.2 108.668ZM7.71999 201.488C6.12869 201.488 4.60257 200.856 3.47735 199.731C2.35213 198.606 1.71999 197.079 1.71999 195.488V57.6681C1.67225 56.3822 2.08525 55.1216 2.88461 54.1132C3.68397 53.1048 4.81714 52.415 6.07999 52.1681C9.92981 51.4553 13.8496 51.1936 17.76 51.3881C22.22 51.3881 23.04 51.2481 23.76 51.7881C26.08 53.4481 22.9 58.5681 29.54 58.5681C40.18 58.5681 40.36 58.3081 46.68 58.2681V81.4681C46.48 81.4681 23.58 82.5881 18.56 81.8681C18.457 81.8238 18.3443 81.8064 18.2328 81.8177C18.1212 81.829 18.0143 81.8685 17.9222 81.9326C17.8302 81.9966 17.7559 82.0831 17.7065 82.1838C17.6572 82.2845 17.6343 82.3961 17.64 82.5081C18.4935 93.2608 18.4266 104.067 17.44 114.808C17.4317 114.895 17.4415 114.983 17.4687 115.067C17.4959 115.15 17.5399 115.227 17.5981 115.293C17.6562 115.358 17.7272 115.411 17.8067 115.448C17.8861 115.485 17.9723 115.506 18.06 115.508C23.82 115.688 34.82 115.508 46.68 115.508V129.848C41.6 129.848 36.68 129.568 31.6 129.508C27.6 129.508 23.02 129.848 18.66 129.848C18.4903 129.848 18.3275 129.916 18.2074 130.036C18.0874 130.156 18.02 130.318 18.02 130.488C18.0173 130.574 18.0319 130.659 18.0628 130.739C18.0938 130.819 18.1405 130.892 18.2002 130.954C18.2599 131.015 18.3314 131.064 18.4104 131.098C18.4893 131.131 18.5742 131.148 18.66 131.148C22.86 131.148 27.64 130.748 31.58 130.808C33.88 130.808 43.94 131.128 46.68 131.128V139.128C33.18 139.648 24.96 138.488 18.68 139.128C18.5958 139.136 18.5139 139.16 18.4391 139.199C18.3643 139.238 18.298 139.292 18.2441 139.357C18.1902 139.422 18.1497 139.497 18.125 139.578C18.1002 139.659 18.0917 139.744 18.1 139.828C18.1201 140 18.2068 140.157 18.3415 140.265C18.4761 140.374 18.6479 140.425 18.82 140.408C27.88 139.908 33.2 140.948 46.82 140.408V148.408C37.2 148.908 28.38 148.688 18.82 148.408C18.7343 148.403 18.6484 148.415 18.5674 148.443C18.4864 148.472 18.412 148.516 18.3485 148.574C18.2851 148.632 18.2339 148.702 18.1981 148.78C18.1623 148.858 18.1425 148.942 18.14 149.028C18.1346 149.114 18.1465 149.2 18.175 149.281C18.2035 149.362 18.2479 149.436 18.3058 149.5C18.3636 149.563 18.4337 149.614 18.5117 149.65C18.5897 149.686 18.6742 149.706 18.76 149.708C24.76 150.088 38.26 150.188 46.76 149.708V157.708C41.14 158.108 28.54 157.108 18.76 157.708C18.5903 157.708 18.4275 157.776 18.3074 157.896C18.1874 158.016 18.12 158.178 18.12 158.348C18.12 158.518 18.1874 158.681 18.3074 158.801C18.4275 158.921 18.5903 158.988 18.76 158.988C18.76 158.988 26.04 158.648 35.42 158.988C38.4 159.108 43.78 159.248 46.74 158.988V166.468C37.64 166.708 22.74 166.608 18.74 166.468C17.92 166.468 17.82 167.728 18.74 167.748C22.86 167.908 37.64 167.988 46.74 167.748V175.748C40.48 176.028 24.22 175.308 18.74 175.748C18.6559 175.753 18.5736 175.775 18.4979 175.812C18.4222 175.849 18.3545 175.9 18.2988 175.964C18.243 176.027 18.2003 176.1 18.1731 176.18C18.1458 176.26 18.1346 176.344 18.14 176.428C18.1451 176.512 18.1667 176.594 18.2037 176.67C18.2407 176.746 18.2922 176.814 18.3554 176.869C18.4186 176.925 18.4921 176.968 18.5719 176.995C18.6516 177.022 18.7359 177.034 18.82 177.028C22.82 176.648 40.54 177.348 46.82 177.028V201.368L7.71999 201.488ZM55.1 210.168C53.2027 210.163 51.3846 209.407 50.0429 208.065C48.7013 206.724 47.9453 204.905 47.94 203.008C47.94 197.628 47.94 47.0081 47.94 44.7481C47.56 38.3681 48.24 35.5481 54.62 35.3681L66.3 35.0281C68.6412 34.6474 71.0429 35.0185 73.16 36.0881C75.34 37.5081 74.64 41.7081 77.72 43.1881C81.72 45.0881 91.4 43.8681 100.06 44.0881C100.06 45.1281 100.42 86.9281 100.46 92.6681C99.32 92.6681 93.78 92.6681 92.88 92.5281C92.7785 92.4763 92.6652 92.4516 92.5513 92.4566C92.4374 92.4615 92.3268 92.4958 92.2301 92.5563C92.1334 92.6167 92.054 92.7011 91.9997 92.8013C91.9453 92.9015 91.9179 93.0141 91.92 93.1281C91.92 93.7881 92.02 96.4081 92.08 99.4681C92.4 115.468 92.4 115.468 93.22 115.468H100.6C100.6 116.208 100.6 125.168 100.74 128.948C77.1 128.948 67.94 129.308 55.34 128.948C55.1824 128.962 55.0334 129.025 54.9146 129.13C54.7958 129.234 54.7136 129.374 54.68 129.528C54.273 135.259 54.1862 141.008 54.42 146.748C54.74 161.988 54.08 166.528 54.24 179.848C54.2112 180.246 54.3017 180.643 54.5 180.988C54.7103 181.251 54.9838 181.457 55.295 181.587C55.6061 181.716 55.945 181.765 56.28 181.728C62.62 181.728 100.52 181.868 100.52 181.868C100.52 183.348 100.52 202.208 100.52 210.208L55.1 210.168ZM211.4 257.708C184.54 257.148 132.48 258.248 112.48 257.708C109.617 257.703 106.873 256.563 104.849 254.539C102.825 252.515 101.685 249.771 101.68 246.908V12.1881C101.582 10.8466 101.766 9.4995 102.219 8.233C102.672 6.96651 103.384 5.80857 104.31 4.83331C105.237 3.85806 106.356 3.087 107.598 2.5695C108.839 2.05201 110.175 1.79949 111.52 1.82811C119.52 1.82811 128.4 1.94811 136.24 1.38811C136.938 1.38548 137.629 1.52062 138.274 1.78579C138.92 2.05096 139.506 2.44094 140.001 2.93335C140.495 3.42577 140.887 4.01092 141.155 4.65526C141.422 5.29959 141.56 5.99042 141.56 6.68811C141.57 8.42656 142.264 10.0911 143.492 11.3223C144.719 12.5535 146.382 13.2524 148.12 13.2681C158.709 13.9502 169.331 13.9502 179.92 13.2681C181.676 13.2681 183.36 12.5706 184.601 11.3292C185.843 10.0877 186.54 8.40384 186.54 6.64811C186.54 5.24246 187.098 3.89439 188.092 2.90044C189.086 1.9065 190.434 1.34811 191.84 1.34811H211.38C221.86 1.34811 222.7 9.86811 222.18 20.3081C221.46 35.0081 222.5 50.4681 222.18 65.0081C220.18 149.148 222.18 209.008 222.18 246.868C222.185 248.288 221.91 249.695 221.371 251.009C220.832 252.322 220.039 253.517 219.038 254.524C218.037 255.531 216.847 256.33 215.536 256.876C214.225 257.423 212.82 257.705 211.4 257.708ZM268.84 210.168H223.12C223.12 209.968 222.8 186.728 222.7 175.728C222.92 175.728 223.2 175.728 246.38 175.728C247.279 175.778 248.178 175.643 249.023 175.333C249.868 175.024 250.641 174.545 251.294 173.926C251.948 173.307 252.469 172.562 252.824 171.735C253.18 170.909 253.364 170.018 253.364 169.118C253.364 168.218 253.18 167.328 252.824 166.501C252.469 165.674 251.948 164.929 251.294 164.31C250.641 163.692 249.868 163.213 249.023 162.903C248.178 162.593 247.279 162.459 246.38 162.508H222.62C222.62 159.888 222.62 157.288 222.62 154.708H251.74C252.053 155.867 252.807 156.857 253.84 157.468C254.709 158.045 255.742 158.325 256.783 158.267C257.825 158.21 258.82 157.817 259.62 157.148C259.84 156.988 259.62 157.308 261.62 151.288C262.779 151.463 263.962 151.409 265.1 151.128C265.8 151.588 268.68 153.828 273.28 162.428C274.103 163.958 275.011 165.44 276 166.868V202.988C276.003 203.93 275.819 204.863 275.461 205.734C275.102 206.605 274.575 207.397 273.91 208.064C273.245 208.731 272.455 209.26 271.585 209.621C270.715 209.982 269.782 210.168 268.84 210.168ZM277.3 201.488V168.688C283.14 176.508 291.3 183.588 296.12 183.588C300.02 183.588 305.84 176.548 308.22 173.428C307.16 182.888 306.22 193.588 305.96 201.428L277.3 201.488ZM291 329.908L288.3 336.868C285.52 336.268 285.34 338.488 282.7 340.028C282.088 340.44 281.348 340.62 280.615 340.536C279.882 340.452 279.203 340.108 278.7 339.568C279.263 338.408 279.544 337.131 279.52 335.841C279.496 334.552 279.167 333.286 278.56 332.148L279.72 324.728C283.248 326.921 287.038 328.662 291 329.908ZM274.2 336.828C274.94 333.568 277.12 330.728 278.02 333.848C278.482 335.727 278.27 337.709 277.42 339.448C276.92 340.228 274.62 341.048 271.42 341.848C272.84 340.5 273.81 338.747 274.2 336.828ZM258.7 345.828C259.18 345.828 267.84 344.088 268.3 343.928C273.36 342.808 276.72 341.808 278.06 340.648C278.766 341.302 279.667 341.705 280.625 341.796C281.583 341.886 282.544 341.658 283.36 341.148C286.4 339.348 286.06 337.488 288.44 338.248H288.54C288.815 338.449 289.024 338.728 289.14 339.048C290.26 341.448 290.68 347.328 290.7 351.588C277.647 353.057 264.491 353.392 251.38 352.588C251.7 349.408 253.82 346.768 258.7 345.828ZM290.7 352.908C290.705 354.012 290.631 355.115 290.48 356.208C287.02 356.688 254.7 357.188 251.9 356.208C251.561 355.466 251.378 354.663 251.36 353.848C264.475 354.7 277.64 354.385 290.7 352.908ZM291.1 341.108C290.951 339.73 290.394 338.428 289.5 337.368L292.26 330.228C292.868 330.379 293.493 330.453 294.12 330.448C298.68 330.208 316.26 279.028 317.52 271.468C318.72 264.348 325.94 244.768 328.92 236.848C328.8 248.708 328.12 267.508 327.4 274.028C326.46 282.808 326.8 327.888 326.82 329.808C326.823 329.928 326.857 330.046 326.92 330.148C328.024 331.471 329.549 332.375 331.24 332.708C331.78 342.708 331.8 343.288 331.84 343.488C327.2 346.148 325.7 351.928 326.28 357.148H291.46C292.36 355.888 292 345.408 291.1 341.108ZM337.26 336.668C342.26 335.748 344.42 338.668 343.26 342.508C340.17 341.569 336.87 341.569 333.78 342.508C333 339.528 334.06 337.268 337.26 336.668ZM327.54 356.808C327.447 355.757 327.447 354.699 327.54 353.648C334.991 354.355 342.499 354.221 349.92 353.248C350.081 354.427 350.141 355.618 350.1 356.808C342.587 357.268 335.053 357.268 327.54 356.808ZM349.68 351.988C342.382 352.916 335.005 353.043 327.68 352.368C328.6 346.568 332.18 343.248 338.5 343.128C341.153 342.845 343.811 343.615 345.901 345.272C347.992 346.929 349.349 349.341 349.68 351.988ZM344.56 338.608C343.48 335.528 340.28 334.788 337.04 335.408C336.158 335.5 335.313 335.81 334.58 336.309C333.847 336.808 333.249 337.481 332.84 338.268L332.54 333.028C336.709 333.657 340.957 333.529 345.08 332.648L344.56 338.608ZM356.56 233.088C355.3 245.428 355.22 255.588 353.54 275.088C353.54 275.088 350.56 308.468 350.3 310.588C349.56 316.408 348.78 322.448 349.86 327.868C350.5 331.008 342.66 331.868 339.48 332.028C336.944 332.306 334.378 332.136 331.9 331.528C330.455 331.242 329.122 330.548 328.06 329.528C328.06 326.028 327.72 282.528 328.64 274.128C329.42 266.828 330.88 228.408 329.8 226.128C327.315 222.519 324.645 219.041 321.8 215.708C321.742 215.647 321.672 215.598 321.595 215.565C321.518 215.532 321.434 215.515 321.35 215.515C321.266 215.515 321.182 215.532 321.105 215.565C321.028 215.598 320.958 215.647 320.9 215.708C320.838 215.768 320.789 215.839 320.756 215.918C320.722 215.997 320.705 216.082 320.705 216.168C320.705 216.254 320.722 216.339 320.756 216.418C320.789 216.497 320.838 216.568 320.9 216.628C323.694 219.862 326.318 223.24 328.76 226.748C329.019 228.878 329.106 231.025 329.02 233.168C328.08 235.628 317.82 262.408 316.32 271.288C314.56 281.868 297.4 328.148 294.14 329.168C291 329.408 278.42 323.168 278.14 321.568C278.4 315.408 280.9 308.408 282.32 302.308C287.3 281.008 288.56 278.188 292.18 262.648C293.44 257.188 294.76 251.528 296.42 246.088C298.24 240.088 306 213.588 308.22 206.388C317.34 211.988 340.46 209.708 351.04 208.388C350.134 210.451 348.69 212.234 346.86 213.548C346.027 213.352 345.157 213.38 344.338 213.629C343.52 213.879 342.782 214.341 342.2 214.968C340.88 216.468 339.1 218.848 337.96 219.088C335.4 219.628 338.92 225.668 345.96 219.628C347.68 222.048 351.62 227.168 354.3 227.168C356 227.168 355.4 225.468 354.5 225.848C354.28 225.928 354.04 225.928 353.82 225.848C357.22 219.268 354.48 219.388 357.82 214.488C357.85 220.708 357.449 226.923 356.62 233.088H356.56ZM378.32 186.248C374.58 191.568 370.32 196.728 365.74 202.248C362.156 206.201 358.816 210.369 355.74 214.728C353.3 218.728 355.44 219.288 352.42 225.148C350.097 223.15 348.077 220.826 346.42 218.248C346.36 218.177 346.285 218.119 346.2 218.08C346.116 218.04 346.023 218.02 345.93 218.02C345.837 218.02 345.744 218.04 345.66 218.08C345.575 218.119 345.5 218.177 345.44 218.248C341.92 221.508 339.8 221.168 339.06 220.888C338.754 220.786 338.488 220.59 338.3 220.328C339.82 219.828 341.36 217.728 342.96 215.868C343.419 215.4 343.995 215.065 344.629 214.896C345.262 214.727 345.929 214.731 346.56 214.908C346.635 214.942 346.717 214.96 346.8 214.96C346.883 214.96 346.965 214.942 347.04 214.908C353.54 211.588 356.84 194.488 360.12 187.668C363.2 181.308 366.12 179.788 366.12 179.668C366.271 179.591 366.386 179.458 366.442 179.298C366.498 179.138 366.49 178.963 366.42 178.808C366.385 178.73 366.336 178.659 366.273 178.601C366.211 178.542 366.138 178.496 366.058 178.466C365.977 178.437 365.892 178.423 365.807 178.427C365.721 178.431 365.637 178.451 365.56 178.488C365.046 178.776 364.569 179.125 364.14 179.528L361.6 174.308C366.981 173.218 372.077 171.018 376.56 167.848C378.138 171.963 379.362 176.205 380.22 180.528C380.23 182.582 379.586 184.586 378.38 186.248H378.32Z" fill="#313553"/>
<path d="M268.44 39.4481C268.51 39.5322 268.601 39.5968 268.703 39.6358C268.806 39.6747 268.916 39.6868 269.025 39.6707C269.133 39.6547 269.236 39.6111 269.322 39.5441C269.409 39.4771 269.477 39.3889 269.52 39.2881C269.52 39.2881 271.98 33.6881 275.66 31.8081C275.737 31.77 275.806 31.7167 275.863 31.6514C275.919 31.586 275.961 31.51 275.988 31.4278C276.014 31.3456 276.023 31.2589 276.015 31.1731C276.007 31.0872 275.981 31.0039 275.94 30.9281C275.859 30.7807 275.725 30.6697 275.565 30.6176C275.406 30.5656 275.232 30.5765 275.08 30.6481C272.338 32.4061 270.148 34.9016 268.76 37.8481L266.24 34.9481C266.129 34.8181 265.97 34.7378 265.799 34.7246C265.629 34.7115 265.46 34.7667 265.33 34.8781C265.2 34.9895 265.12 35.1479 265.107 35.3186C265.093 35.4893 265.149 35.6581 265.26 35.7881L268.44 39.4481Z" fill="#313553"/>
</svg>
