<?xml version="1.0" encoding="UTF-8"?>
<!DOCTYPE svg PUBLIC "-//W3C//DTD SVG 1.0//EN" "http://www.w3.org/TR/2001/REC-SVG-20010904/DTD/svg10.dtd">
<!-- Creator: CorelDRAW 2018 (64-Bit) -->
<svg xmlns="http://www.w3.org/2000/svg" xml:space="preserve" width="53.4742mm" height="53.4742mm" version="1.0" style="shape-rendering:geometricPrecision; text-rendering:geometricPrecision; image-rendering:optimizeQuality; fill-rule:evenodd; clip-rule:evenodd"
viewBox="0 0 956.52 956.52"
 xmlns:xlink="http://www.w3.org/1999/xlink">
 <defs>
  <style type="text/css">
   <![CDATA[
    .fil3 {fill:#FFC107}
    .fil0 {fill:white}
    .fil1 {fill:#0D6EFD;fill-rule:nonzero}
    .fil2 {fill:#0DCAF0;fill-rule:nonzero}
   ]]>
  </style>
 </defs>
 <g id="Слой_x0020_1">
  <metadata id="CorelCorpID_0Corel-Layer"/>
  <g id="_1725634673952">
   <circle class="fil0" cx="478.26" cy="478.26" r="478.26"/>
   <path class="fil1" d="M690.8 239.6l0 356.88 -129.96 0 0 -254.03 129.96 -102.85z"/>
   <path class="fil2" d="M511.94 577.48c0,28.32 -3.19,54.98 -9.58,79.97 -6.39,24.99 -17.49,46.79 -33.32,65.39 -15.83,18.6 -37.21,33.32 -64.15,44.15 -26.93,10.83 -60.95,16.24 -102.05,16.24 -25.79,0 -49.11,-2.14 -69.98,-6.41l0 -115.22c18.33,7.22 38.32,10.83 59.98,10.83 31.66,0 54.43,-7.77 68.31,-23.33 13.88,-15.55 20.83,-41.65 20.83,-78.31l0 -86.82 129.96 -102.85 0 196.33z"/>
   <path class="fil3" d="M381.99 417.27l0 -136.36 -149.18 -107.64 456.01 0 -306.83 244z"/>
  </g>
 </g>
</svg>
